<svg xmlns="http://www.w3.org/2000/svg" xmlns:xlink="http://www.w3.org/1999/xlink" width="500" zoomAndPan="magnify" viewBox="0 0 375 374.999991" height="500" preserveAspectRatio="xMidYMid meet" version="1.0"><defs><clipPath id="0040292728"><path d="M 28.664062 31.84375 L 323 31.84375 L 323 355.84375 L 28.664062 355.84375 Z M 28.664062 31.84375 " clip-rule="nonzero"/></clipPath><clipPath id="989786b74d"><path d="M 272 162 L 346.664062 162 L 346.664062 197 L 272 197 Z M 272 162 " clip-rule="nonzero"/></clipPath></defs><g clip-path="url(#0040292728)"><path fill="#000000" d="M 182.40625 32.039062 C 180.742188 32.339844 178.988281 33.726562 177.992188 35.480469 C 177.578125 36.21875 177.484375 36.746094 177.484375 38.246094 C 177.484375 40.09375 177.691406 40.742188 178.824219 42.378906 C 179.21875 42.910156 181.367188 44.363281 181.804688 44.363281 C 182.359375 44.363281 182.429688 48.515625 182.359375 71.804688 C 182.292969 90.886719 182.246094 93.609375 181.945312 93.75 C 181.761719 93.84375 181.296875 94.074219 180.949219 94.234375 C 179.820312 94.765625 178.546875 96.011719 178.039062 97.097656 C 177.367188 98.550781 177.34375 101.226562 178.039062 102.449219 C 178.753906 103.742188 179.796875 104.757812 181.066406 105.335938 L 182.175781 105.867188 L 182.175781 108.289062 L 172.097656 108.289062 C 161.90625 108.289062 161.535156 108.3125 160.703125 109.140625 C 160.3125 109.558594 160.011719 112.605469 160.058594 115.972656 L 160.105469 118.441406 L 150.511719 118.441406 L 150.511719 97.441406 L 151.113281 97.441406 C 152.175781 97.441406 154.140625 95.78125 154.765625 94.351562 C 155.6875 92.25 155.6875 90.820312 154.789062 88.789062 C 154.347656 87.839844 152.894531 86.410156 151.898438 85.996094 C 151.460938 85.789062 150.90625 85.535156 150.695312 85.417969 C 150.121094 85.117188 148.5 85.164062 147.53125 85.488281 C 145.382812 86.226562 143.695312 88.003906 143.164062 90.125 C 142.746094 91.742188 142.863281 92.640625 143.648438 94.371094 C 144.15625 95.480469 146.375 97.441406 147.113281 97.441406 C 147.300781 97.441406 147.53125 97.601562 147.601562 97.8125 C 147.667969 98.019531 147.738281 102.726562 147.738281 108.3125 L 147.738281 118.441406 L 136.644531 118.441406 L 136.644531 67.28125 L 136.136719 66.816406 C 135.117188 65.894531 134.703125 65.824219 130.542969 65.824219 L 126.476562 65.824219 L 126.476562 56.480469 C 126.476562 48.078125 126.523438 47.132812 126.84375 47.132812 C 127.609375 47.132812 130.171875 44.871094 130.171875 44.203125 C 130.171875 44.039062 130.242188 43.902344 130.359375 43.902344 C 130.636719 43.902344 131.097656 42.148438 131.097656 41.085938 C 131.097656 40.554688 130.980469 39.746094 130.820312 39.308594 C 130.496094 38.363281 129.339844 36.539062 128.808594 36.125 C 128.207031 35.664062 126.660156 34.972656 125.621094 34.695312 C 123.402344 34.09375 120.257812 35.734375 118.847656 38.246094 C 118.433594 38.988281 118.316406 39.539062 118.316406 41.015625 C 118.316406 42.957031 118.6875 43.972656 119.84375 45.261719 C 120.511719 45.980469 122.199219 47.132812 122.617188 47.132812 C 123.007812 47.132812 123.238281 51.957031 123.238281 60.332031 L 123.238281 65.824219 L 113.300781 65.824219 L 113.164062 65.179688 C 112.792969 63.472656 111.867188 62.292969 110.136719 61.28125 C 109.234375 60.75 108.769531 60.65625 107.429688 60.632812 C 106.507812 60.632812 105.441406 60.773438 104.980469 60.980469 C 103.824219 61.441406 102.324219 62.917969 101.769531 64.117188 C 101.074219 65.546875 101.097656 67.972656 101.8125 69.289062 C 102.578125 70.742188 103.59375 71.710938 104.933594 72.265625 L 105.675781 72.5625 L 105.71875 79.765625 C 105.8125 92.527344 105.8125 100.789062 105.71875 101.066406 C 105.652344 101.296875 103.339844 101.367188 95.25 101.367188 L 84.875 101.367188 L 84.875 100.210938 C 84.875 97.488281 82.863281 95.25 79.488281 94.210938 C 77.5 93.589844 74.101562 95.34375 73.0625 97.488281 C 71.859375 99.957031 71.859375 100.925781 73.132812 103.605469 C 73.917969 105.21875 75.859375 106.671875 77.269531 106.671875 C 78.402344 106.671875 79.394531 107.226562 80.851562 108.679688 C 83.210938 111.035156 89.265625 117.472656 89.265625 117.636719 C 89.265625 117.703125 88.964844 118.210938 88.617188 118.742188 C 88.269531 119.273438 87.855469 120.082031 87.691406 120.542969 C 87.347656 121.535156 87.324219 123.890625 87.648438 124.097656 C 87.785156 124.164062 87.878906 124.441406 87.878906 124.695312 C 87.878906 125.503906 90.375 127.742188 91.691406 128.136719 L 92.847656 128.503906 L 92.847656 139.097656 L 67.675781 139.097656 L 67.03125 137.828125 C 65.714844 135.3125 63.863281 134.136719 61.183594 134.136719 C 57.925781 134.136719 55.636719 136.027344 54.875 139.375 C 54.617188 140.4375 54.828125 141.703125 55.449219 143.113281 C 55.890625 144.058594 57.53125 145.90625 57.96875 145.90625 C 58.15625 145.90625 58.292969 145.996094 58.292969 146.136719 C 58.292969 146.25 58.5 146.367188 58.734375 146.367188 C 58.988281 146.367188 59.265625 146.457031 59.335938 146.597656 C 59.402344 146.714844 60.304688 146.828125 61.296875 146.828125 C 62.292969 146.828125 63.195312 146.714844 63.261719 146.597656 C 63.332031 146.457031 63.585938 146.367188 63.816406 146.367188 C 64.417969 146.367188 65.992188 144.9375 66.84375 143.597656 L 67.585938 142.445312 L 92.960938 142.445312 L 92.960938 147.152344 C 92.960938 149.734375 92.894531 152.019531 92.824219 152.226562 C 92.753906 152.4375 92.476562 152.597656 92.222656 152.597656 C 91.644531 152.597656 90.882812 153.011719 90.375 153.566406 C 90.164062 153.796875 89.65625 154.097656 89.242188 154.214844 C 88.800781 154.351562 84.988281 154.445312 80.757812 154.445312 L 73.085938 154.445312 L 72.691406 153.566406 C 72.507812 153.105469 72.207031 152.457031 72.09375 152.136719 C 71.722656 151.304688 70.082031 149.621094 69.273438 149.25 C 66.613281 148.074219 63.910156 148.558594 62.152344 150.496094 C 60.789062 151.996094 60.511719 152.714844 60.535156 154.789062 C 60.535156 156.265625 60.628906 156.820312 61.042969 157.558594 C 61.667969 158.667969 63.125 160.214844 63.539062 160.214844 C 63.703125 160.214844 63.839844 160.304688 63.839844 160.398438 C 63.839844 160.765625 65.414062 161.136719 66.984375 161.136719 C 68.371094 161.136719 68.765625 161.042969 69.640625 160.488281 C 70.773438 159.75 72.09375 158.367188 72.390625 157.535156 L 72.625 156.980469 L 80.945312 156.980469 C 87.761719 156.980469 89.265625 157.027344 89.265625 157.28125 C 89.265625 158.550781 91.320312 160.582031 92.871094 160.8125 C 94.582031 161.066406 95.621094 160.746094 96.753906 159.636719 C 97.539062 158.828125 97.792969 158.390625 97.929688 157.558594 C 98.1875 155.828125 97.886719 154.859375 96.753906 153.519531 L 95.734375 152.320312 L 95.734375 147.636719 C 95.734375 145.050781 95.78125 142.8125 95.851562 142.628906 C 95.945312 142.398438 96.683594 142.351562 99.320312 142.398438 L 102.667969 142.464844 L 102.667969 144.453125 C 102.667969 146.273438 102.625 146.457031 102.089844 146.875 C 100.128906 148.421875 100.589844 151.304688 102.992188 152.480469 C 103.847656 152.921875 104.472656 152.921875 105.464844 152.503906 C 108.125 151.398438 108.449219 147.820312 106.019531 146.457031 C 105.628906 146.226562 105.558594 145.953125 105.558594 144.382812 L 105.558594 142.558594 L 117 142.511719 C 123.285156 142.464844 128.554688 142.535156 128.671875 142.628906 C 128.808594 142.71875 129.410156 143.367188 130.035156 144.058594 C 131.328125 145.488281 136.25 150.75 139.09375 153.75 C 140.113281 154.835938 141.566406 156.382812 142.332031 157.214844 C 143.070312 158.019531 144.433594 159.472656 145.335938 160.445312 C 146.234375 161.390625 147.578125 162.84375 148.339844 163.675781 C 149.078125 164.484375 150.695312 166.191406 151.945312 167.484375 C 153.171875 168.753906 154.394531 170.089844 154.695312 170.460938 L 155.203125 171.105469 L 154.558594 172.304688 C 154.1875 172.953125 153.449219 174.382812 152.914062 175.46875 C 152.359375 176.550781 151.785156 177.542969 151.621094 177.683594 C 151.183594 178.03125 127.746094 177.960938 127.398438 177.613281 C 127.214844 177.429688 127.355469 177.246094 127.90625 176.992188 C 130.496094 175.722656 131.976562 172.835938 131.351562 170.296875 C 130.542969 167.089844 128.117188 165.058594 125.066406 165.058594 C 123.425781 165.058594 121.597656 165.820312 120.558594 166.953125 C 119.773438 167.804688 118.894531 169.492188 118.800781 170.367188 C 118.734375 170.921875 118.6875 170.945312 116.953125 170.945312 C 115.960938 170.945312 103.546875 170.898438 89.378906 170.875 L 63.609375 170.828125 L 63.609375 170.34375 C 63.609375 170.089844 63.078125 169.351562 62.386719 168.660156 C 61.4375 167.691406 60.976562 167.414062 60.164062 167.273438 C 57.207031 166.8125 54.597656 168.867188 54.597656 171.683594 C 54.597656 173.253906 55.796875 175.445312 56.675781 175.445312 C 56.792969 175.445312 56.90625 175.535156 56.90625 175.675781 C 56.90625 175.789062 57.113281 175.90625 57.347656 175.90625 C 57.601562 175.90625 57.878906 176 57.945312 176.136719 C 58.203125 176.527344 59.867188 176.390625 60.953125 175.882812 C 61.53125 175.605469 62.339844 174.984375 62.777344 174.5 L 63.539062 173.597656 L 119.035156 173.597656 L 119.425781 174.222656 C 120.488281 175.835938 121.574219 176.644531 123.769531 177.5 L 124.394531 177.753906 L 124.394531 188.597656 L 120.351562 188.597656 C 116.582031 188.597656 116.304688 188.574219 116.304688 188.183594 C 116.304688 186.984375 114.550781 184.90625 112.769531 184.007812 C 111.265625 183.246094 108.746094 183.222656 107.40625 183.984375 C 105.398438 185.089844 104.472656 186.175781 103.941406 188.066406 L 103.800781 188.597656 L 72.601562 188.597656 C 45.976562 188.597656 41.421875 188.550781 41.421875 188.277344 C 41.421875 187.304688 39.25 184.445312 38.511719 184.445312 C 38.324219 184.445312 38.1875 184.328125 38.1875 184.214844 C 38.1875 184.074219 37.976562 183.984375 37.746094 183.984375 C 37.492188 183.984375 37.214844 183.867188 37.144531 183.753906 C 36.800781 183.175781 31.945312 183.660156 31.945312 184.261719 C 31.945312 184.351562 31.808594 184.445312 31.644531 184.445312 C 31.160156 184.445312 29.796875 186.035156 29.21875 187.261719 C 28.847656 188.089844 28.710938 188.785156 28.710938 190.074219 C 28.710938 191.023438 28.824219 191.875 28.941406 191.945312 C 29.078125 192.015625 29.171875 192.292969 29.171875 192.546875 C 29.171875 192.777344 29.289062 192.984375 29.402344 192.984375 C 29.542969 192.984375 29.632812 193.121094 29.632812 193.285156 C 29.632812 193.652344 31.296875 195.292969 31.667969 195.292969 C 31.832031 195.292969 31.945312 195.359375 31.945312 195.476562 C 31.945312 195.914062 33.5625 196.304688 35.296875 196.304688 C 36.777344 196.304688 37.332031 196.191406 38.023438 195.800781 C 39.226562 195.105469 40.265625 194 40.960938 192.683594 L 41.539062 191.597656 L 103.941406 191.597656 L 104.332031 192.453125 C 105.210938 194.507812 107.871094 196.214844 110.179688 196.214844 C 112.515625 196.214844 115.152344 194.460938 116.121094 192.269531 L 116.421875 191.597656 L 120.050781 191.597656 C 122.039062 191.597656 123.816406 191.53125 124.027344 191.460938 C 124.347656 191.320312 124.394531 191.992188 124.394531 197.828125 L 124.394531 204.335938 L 99.503906 204.269531 C 72.625 204.199219 73.894531 204.152344 73.339844 205.375 C 73.179688 205.722656 73.085938 207.753906 73.085938 210.523438 L 73.085938 215.136719 L 47.546875 215.136719 L 47.128906 214.214844 C 45.304688 209.992188 39.710938 208.929688 36.566406 212.183594 C 36.105469 212.691406 35.574219 213.359375 35.414062 213.707031 C 35.25 214.054688 35.042969 214.515625 34.925781 214.722656 C 34.535156 215.507812 34.695312 218.09375 35.203125 219.152344 C 35.78125 220.375 37.167969 222.0625 37.632812 222.0625 C 37.816406 222.0625 37.953125 222.128906 37.953125 222.246094 C 37.953125 222.660156 39.574219 223.078125 41.191406 223.078125 C 42.601562 223.078125 43.15625 222.960938 43.964844 222.5 C 45.328125 221.785156 46.34375 220.675781 47.085938 219.152344 L 47.683594 217.90625 L 73.085938 217.90625 L 73.085938 219.824219 C 73.085938 221.644531 73.0625 221.785156 72.390625 222.40625 C 70.496094 224.207031 72.667969 227.761719 75.144531 226.90625 C 76.53125 226.421875 77.105469 225.613281 77.128906 224.230469 C 77.128906 223.261719 77.039062 222.9375 76.621094 222.570312 C 76.136719 222.175781 76.089844 221.921875 76.089844 220.007812 L 76.089844 217.90625 L 88.339844 217.90625 C 95.089844 217.90625 100.589844 217.976562 100.589844 218.070312 C 100.589844 218.160156 99.6875 219.175781 98.578125 220.332031 C 97.445312 221.484375 94.835938 224.230469 92.730469 226.445312 C 81.3125 238.539062 78.75 241.078125 78.261719 240.890625 C 77.546875 240.617188 75.8125 241.285156 74.933594 242.136719 C 73.222656 243.871094 73.269531 246.015625 75.050781 247.816406 C 76.066406 248.832031 77.199219 249.152344 78.792969 248.902344 C 80.203125 248.667969 82.101562 246.453125 82.101562 245.070312 C 82.101562 244.539062 81.660156 243.152344 81.335938 242.667969 C 81.222656 242.484375 81.613281 241.929688 82.375 241.167969 C 83.046875 240.5 84.640625 238.863281 85.890625 237.523438 C 87.136719 236.183594 89.21875 234.015625 90.511719 232.675781 C 94.28125 228.777344 99.320312 223.398438 100.035156 222.523438 C 101.351562 220.929688 104.308594 218.136719 104.820312 218.023438 C 105.097656 217.953125 114.109375 217.929688 124.855469 217.953125 L 144.386719 218.023438 L 144.386719 222.914062 L 140.804688 226.699219 C 137.152344 230.53125 132.253906 235.632812 127.308594 240.683594 C 124.347656 243.707031 124.140625 243.824219 122.570312 243.269531 C 121.230469 242.808594 118.710938 243.777344 117.300781 245.324219 C 114.410156 248.484375 115.359375 253.238281 119.265625 255.246094 C 120.765625 256.007812 123.191406 255.960938 124.8125 255.15625 C 126.011719 254.554688 127.097656 253.492188 127.632812 252.339844 C 127.792969 251.992188 128 251.53125 128.117188 251.324219 C 128.417969 250.722656 128.371094 248.253906 128.046875 247.515625 C 127.886719 247.167969 127.515625 246.476562 127.191406 245.992188 L 126.636719 245.140625 L 127.886719 243.914062 C 130.636719 241.191406 143.53125 227.785156 145.773438 225.292969 C 146.421875 224.601562 147 223.976562 147.113281 223.953125 C 147.207031 223.90625 147.277344 222.546875 147.277344 220.929688 L 147.277344 217.976562 L 152.175781 218.023438 L 154.648438 215.414062 C 155.988281 213.984375 157.167969 212.832031 157.261719 212.832031 C 157.351562 212.832031 157.886719 213.316406 158.417969 213.914062 C 159.988281 215.667969 161.351562 216.890625 163.570312 218.578125 C 165.628906 220.144531 166.320312 220.585938 168.769531 221.875 C 169.464844 222.246094 170.15625 222.683594 170.320312 222.824219 C 170.503906 223.007812 170.597656 224.414062 170.621094 227.371094 C 170.667969 234.386719 170.667969 234.753906 170.296875 234.753906 C 169.996094 234.753906 164.332031 240.386719 159.179688 245.832031 C 156.796875 248.324219 156.914062 248.207031 153.054688 252.199219 C 148.570312 256.792969 141.867188 263.855469 141.035156 264.800781 C 140.414062 265.539062 140.15625 265.679688 139.347656 265.679688 C 138.148438 265.679688 135.488281 266.507812 135.488281 266.878906 C 135.488281 266.992188 135.351562 267.0625 135.164062 267.0625 C 134.75 267.0625 133.546875 268.449219 133.085938 269.417969 C 131.558594 272.785156 132.714844 276.015625 136.136719 277.957031 C 137.40625 278.671875 140.15625 278.648438 141.613281 277.910156 C 142.839844 277.285156 144.179688 275.855469 144.664062 274.609375 L 145.011719 273.753906 L 156.476562 273.753906 L 156.636719 278.417969 C 156.707031 281 156.753906 286.515625 156.707031 290.71875 L 156.636719 298.332031 L 137.222656 298.402344 C 126.542969 298.425781 116.953125 298.402344 115.914062 298.308594 C 114.273438 298.195312 113.996094 298.125 113.996094 297.753906 C 113.996094 297.0625 113.023438 295.402344 112.097656 294.480469 C 111.289062 293.695312 110.875 293.441406 109.070312 292.703125 C 108.238281 292.378906 107.039062 292.378906 106.207031 292.703125 C 104.449219 293.441406 104.054688 293.648438 103.269531 294.457031 C 102.277344 295.496094 101.953125 296.09375 101.539062 297.570312 C 101.257812 298.585938 101.257812 299.070312 101.628906 300.894531 C 101.859375 301.957031 103.316406 303.757812 104.609375 304.5625 C 105.628906 305.1875 105.929688 305.257812 107.617188 305.257812 C 108.726562 305.257812 109.8125 305.117188 110.296875 304.933594 C 111.289062 304.519531 112.886719 302.996094 113.484375 301.910156 L 113.925781 301.101562 L 135.140625 301.03125 C 151.96875 300.988281 156.40625 301.03125 156.566406 301.261719 C 156.660156 301.425781 156.753906 307.449219 156.753906 314.671875 L 156.753906 327.757812 L 155.503906 328.355469 C 153.957031 329.09375 152.984375 329.972656 152.476562 331.148438 C 152.269531 331.632812 151.992188 332.210938 151.875 332.417969 C 151.414062 333.296875 151.851562 336.988281 152.40625 336.988281 C 152.523438 336.988281 152.59375 337.125 152.59375 337.3125 C 152.59375 337.773438 154.300781 339.433594 155.179688 339.828125 C 156.914062 340.566406 157.285156 340.679688 158.09375 340.679688 C 159.085938 340.679688 160.3125 340.289062 161.257812 339.664062 C 162.300781 338.996094 163.917969 337.195312 163.917969 336.734375 C 163.917969 336.503906 164.03125 336.25 164.148438 336.179688 C 164.679688 335.855469 164.21875 331.21875 163.640625 331.21875 C 163.523438 331.21875 163.457031 331.078125 163.457031 330.917969 C 163.457031 330.433594 161.882812 328.980469 160.796875 328.472656 L 159.757812 327.988281 L 159.757812 300.988281 L 165.257812 300.988281 C 170.089844 300.988281 170.78125 300.941406 171.222656 300.570312 C 172.097656 299.855469 172.285156 298.726562 172.097656 295.101562 L 171.9375 291.753906 L 177.738281 291.753906 L 178.339844 292.980469 C 179.054688 294.457031 179.355469 294.757812 181.019531 295.609375 L 182.292969 296.277344 L 182.359375 318.546875 C 182.382812 330.78125 182.359375 341.234375 182.292969 341.765625 C 182.199219 342.410156 182.039062 342.757812 181.828125 342.757812 C 181.367188 342.757812 179.863281 343.609375 179.148438 344.304688 C 177.945312 345.410156 177.4375 346.796875 177.460938 348.851562 C 177.460938 350.996094 177.878906 351.941406 179.449219 353.441406 C 181.96875 355.84375 185.875 355.84375 188.347656 353.417969 C 189.78125 352.011719 190.265625 350.859375 190.265625 348.757812 C 190.265625 347.742188 190.171875 346.867188 190.035156 346.796875 C 189.917969 346.726562 189.804688 346.472656 189.804688 346.265625 C 189.78125 345.710938 188.253906 343.679688 187.839844 343.679688 C 187.652344 343.679688 187.492188 343.609375 187.492188 343.496094 C 187.492188 343.3125 186.359375 342.757812 185.945312 342.757812 C 185.710938 342.757812 185.644531 340.449219 185.644531 330.6875 C 185.644531 324.066406 185.574219 313.679688 185.503906 307.609375 C 185.367188 296.210938 185.367188 295.910156 186.265625 295.910156 C 186.453125 295.910156 187.054688 295.609375 187.609375 295.21875 C 189.226562 294.109375 190.265625 292.101562 190.265625 290.09375 C 190.265625 289.078125 190.171875 288.710938 189.433594 287.023438 C 189.039062 286.101562 187.585938 284.738281 186.453125 284.210938 L 185.527344 283.792969 L 185.527344 257.945312 L 191.953125 257.878906 L 198.355469 257.832031 L 198.355469 271.910156 C 198.355469 286.746094 198.378906 286.980469 199.394531 287.832031 C 199.742188 288.109375 200.621094 288.179688 203.949219 288.179688 L 208.0625 288.179688 L 208.0625 294.457031 C 208.0625 299.464844 207.992188 300.757812 207.761719 300.757812 C 207.34375 300.757812 206.214844 301.308594 206.214844 301.496094 C 206.214844 301.609375 206.074219 301.679688 205.890625 301.679688 C 205.519531 301.679688 204.292969 303.019531 203.832031 303.941406 C 203.140625 305.28125 202.882812 306.894531 203.183594 307.957031 C 203.808594 310.21875 205.011719 311.71875 206.953125 312.734375 C 207.785156 313.171875 210.949219 313.125 211.992188 312.6875 C 213.03125 312.226562 214.511719 310.773438 215.179688 309.546875 C 215.875 308.1875 215.898438 305.578125 215.203125 304.101562 C 214.625 302.902344 213.285156 301.609375 211.992188 301.054688 L 211.066406 300.640625 L 211.066406 288.15625 L 214.371094 288.226562 C 216.175781 288.292969 217.792969 288.363281 217.953125 288.410156 C 218.09375 288.480469 218.230469 288.753906 218.230469 289.03125 C 218.253906 290.671875 220.636719 293.1875 222.738281 293.808594 C 225.558594 294.640625 228.839844 293.046875 230.179688 290.253906 L 230.574219 289.449219 L 233.046875 289.449219 C 235.773438 289.449219 236.722656 289.679688 236.722656 290.324219 C 236.722656 290.832031 238.246094 292.679688 238.664062 292.679688 C 238.824219 292.679688 239.148438 292.863281 239.355469 293.117188 C 239.703125 293.488281 239.75 294.039062 239.703125 297.179688 L 239.65625 300.800781 L 239.007812 301.402344 C 237.761719 302.488281 237.34375 303.917969 237.945312 304.957031 C 239.261719 307.289062 241.644531 307.65625 243.332031 305.785156 C 244 305.046875 244.488281 303.570312 244.140625 303.226562 C 244 303.085938 243.886719 302.808594 243.886719 302.625 C 243.886719 302.441406 243.585938 301.957031 243.214844 301.5625 C 242.570312 300.894531 242.546875 300.800781 242.476562 298.101562 C 242.382812 293.925781 242.453125 292.679688 242.800781 292.679688 C 243.332031 292.679688 244.71875 290.972656 245.019531 289.980469 C 245.503906 288.269531 244.394531 286.171875 242.429688 285.085938 C 240.882812 284.234375 238.917969 284.625 237.644531 286.03125 L 236.976562 286.746094 L 233.925781 286.703125 C 232.238281 286.679688 230.757812 286.585938 230.664062 286.539062 C 230.574219 286.472656 230.480469 286.195312 230.480469 285.894531 C 230.480469 284.695312 228.632812 282.386719 227.152344 281.738281 C 224.632812 280.679688 223.730469 280.679688 221.328125 281.738281 C 220.449219 282.132812 218.902344 283.769531 218.441406 284.785156 L 218.117188 285.523438 L 211.066406 285.523438 L 211.066406 267.753906 L 231.542969 267.800781 L 252.019531 267.871094 L 252.113281 270.222656 C 252.230469 274.148438 252.554688 274.449219 256.828125 274.449219 L 259.742188 274.449219 L 260.15625 275.1875 C 261.195312 276.917969 262.953125 278.371094 264.015625 278.371094 C 264.339844 278.371094 264.457031 278.648438 264.59375 279.941406 C 264.847656 282.363281 264.546875 288.503906 264.132812 288.964844 C 263.949219 289.171875 263.648438 289.726562 263.460938 290.1875 C 263.136719 290.949219 263.136719 291.15625 263.417969 291.847656 C 264.039062 293.347656 265.933594 294.0625 267.300781 293.300781 C 268.800781 292.472656 269.378906 290.554688 268.410156 289.539062 C 267.574219 288.640625 267.53125 288.226562 267.554688 283.332031 C 267.574219 278.695312 267.597656 278.484375 268.039062 278.417969 C 268.664062 278.324219 269.5625 277.863281 270.09375 277.378906 C 271.136719 276.457031 271.414062 276.664062 275.78125 281.277344 C 279.664062 285.386719 280.632812 286.449219 280.632812 286.5625 C 280.632812 286.632812 280.449219 286.980469 280.242188 287.300781 C 278.207031 290.394531 279.410156 294.480469 282.921875 296.324219 C 283.730469 296.742188 284.285156 296.832031 285.835938 296.832031 C 286.898438 296.832031 287.84375 296.71875 287.914062 296.601562 C 287.984375 296.464844 288.238281 296.371094 288.492188 296.371094 C 289.046875 296.371094 291.128906 294.316406 291.566406 293.324219 C 292.539062 291.0625 292.605469 290.648438 292.144531 289.242188 C 291.613281 287.578125 291.21875 286.863281 290.34375 286.007812 C 288.910156 284.625 287.613281 284.070312 285.71875 284.070312 C 284.792969 284.070312 283.960938 284.1875 283.800781 284.347656 C 283.222656 284.925781 282.390625 284.601562 281.375 283.378906 C 280.820312 282.710938 278.578125 280.308594 276.359375 278.023438 C 272.660156 274.238281 272.3125 273.824219 272.453125 273.222656 C 272.589844 272.53125 272.222656 270.570312 271.78125 269.601562 C 271.25 268.46875 270.003906 267.132812 269.03125 266.671875 C 266.582031 265.492188 265.933594 265.425781 264.039062 266.117188 C 262.699219 266.601562 262.445312 266.785156 261.265625 267.847656 C 260.503906 268.5625 260.132812 269.207031 259.578125 270.800781 L 259.277344 271.679688 L 255.28125 271.679688 L 255.117188 270.269531 C 255.050781 269.484375 254.980469 268.332031 254.980469 267.710938 C 254.980469 266.925781 254.839844 266.347656 254.496094 265.886719 L 254.03125 265.214844 L 211.066406 265.214844 L 211.066406 257.832031 L 220.980469 257.832031 C 226.503906 257.832031 230.964844 257.925781 231.035156 258.039062 C 231.105469 258.15625 231.011719 258.386719 230.804688 258.546875 C 230.296875 258.960938 229.832031 259.933594 229.789062 260.714844 C 229.671875 262.308594 229.789062 262.679688 230.710938 263.601562 C 231.566406 264.453125 231.730469 264.523438 232.882812 264.523438 C 233.992188 264.523438 234.226562 264.433594 235.125 263.625 C 236.074219 262.792969 236.121094 262.679688 236.121094 261.453125 C 236.121094 260.347656 236.027344 260.046875 235.359375 259.214844 C 234.941406 258.6875 234.640625 258.222656 234.664062 258.175781 C 234.710938 258.132812 235.402344 258.0625 236.1875 258.015625 C 237.597656 257.945312 237.644531 257.96875 238.617188 258.894531 C 240.558594 260.738281 240.972656 260.925781 243.285156 260.945312 C 244.8125 260.945312 245.621094 260.832031 246.195312 260.554688 C 247.328125 260.023438 248.691406 258.617188 249.226562 257.414062 C 249.59375 256.65625 249.800781 256.445312 250.3125 256.402344 C 250.65625 256.378906 259.441406 256.355469 269.863281 256.355469 L 288.769531 256.332031 L 289.441406 255.523438 L 290.109375 254.738281 L 290.109375 249.9375 C 290.109375 245.300781 290.132812 245.140625 290.574219 245.140625 C 290.828125 245.140625 291.035156 245.023438 291.035156 244.90625 C 291.035156 244.769531 291.171875 244.675781 291.359375 244.675781 C 291.820312 244.675781 293.507812 242.761719 293.925781 241.769531 C 294.316406 240.824219 294.410156 237.640625 294.039062 237.40625 C 293.925781 237.339844 293.808594 237.085938 293.808594 236.832031 C 293.808594 236.117188 291.726562 234.039062 290.386719 233.4375 C 288.421875 232.585938 286.667969 232.746094 284.261719 233.992188 C 284.054688 234.109375 283.382812 233.4375 278.324219 228.0625 C 273.816406 223.261719 273.515625 222.984375 272.613281 222.613281 C 272.011719 222.363281 267.761719 222.316406 248.347656 222.453125 C 235.402344 222.523438 224.519531 222.523438 224.171875 222.429688 C 223.824219 222.363281 223.546875 222.152344 223.546875 221.96875 C 223.546875 221 221.882812 219.0625 220.195312 218.113281 C 218.878906 217.375 216.242188 217.375 214.695312 218.113281 C 213.378906 218.761719 211.945312 220.308594 211.527344 221.578125 C 211.367188 222.085938 211.066406 222.546875 210.859375 222.613281 C 210.652344 222.660156 208.570312 222.707031 206.214844 222.707031 C 201.660156 222.730469 201.589844 222.707031 201.589844 221.578125 C 201.589844 221.070312 201.9375 220.746094 203.855469 219.5 C 207.507812 217.121094 212.707031 211.652344 214.347656 208.492188 C 215.203125 206.808594 215.066406 206.828125 221.8125 206.828125 C 225.117188 206.828125 228.054688 206.898438 228.308594 206.96875 C 228.585938 207.039062 228.957031 207.382812 229.117188 207.707031 C 230.019531 209.484375 231.683594 210.984375 233.484375 211.605469 C 236.398438 212.644531 239.839844 210.800781 241.296875 207.453125 L 241.574219 206.828125 L 252.898438 206.828125 L 252.898438 211.445312 C 252.898438 214.46875 252.992188 216.246094 253.175781 216.636719 C 253.777344 217.953125 252.738281 217.90625 279.363281 217.953125 L 303.863281 218.023438 L 303.886719 219.382812 C 303.910156 220.585938 303.839844 220.816406 303.355469 221.230469 C 301.457031 222.800781 300.972656 223.929688 301.320312 225.847656 C 301.503906 226.722656 302.890625 228.523438 303.421875 228.523438 C 303.609375 228.523438 303.746094 228.707031 303.746094 228.914062 C 303.769531 229.144531 303.746094 232.492188 303.746094 236.371094 C 303.722656 243.292969 303.746094 243.429688 304.230469 243.960938 C 304.625 244.378906 304.878906 244.46875 305.433594 244.355469 C 306.726562 244.101562 306.726562 244.054688 306.75 236.023438 L 306.75 228.617188 L 307.445312 228.222656 C 308.324219 227.691406 308.96875 226.769531 309.15625 225.707031 C 309.410156 224.277344 309.109375 223.332031 307.882812 221.945312 L 306.75 220.652344 L 306.75 218.53125 C 306.726562 216.175781 306.472656 215.578125 305.273438 215.277344 C 304.902344 215.183594 293.648438 215.113281 280.289062 215.136719 L 255.949219 215.160156 L 255.789062 212.324219 C 255.695312 210.753906 255.671875 208.90625 255.71875 208.214844 L 255.789062 206.945312 L 282.714844 206.875 C 297.53125 206.828125 310.613281 206.875 311.789062 206.945312 L 313.917969 207.105469 L 313.917969 243.453125 L 312.851562 244.007812 C 312.253906 244.308594 311.511719 244.90625 311.167969 245.371094 C 310.84375 245.808594 310.519531 246.222656 310.425781 246.292969 C 309.664062 246.984375 309.363281 250.886719 309.988281 252.222656 C 310.171875 252.640625 310.402344 252.984375 310.496094 252.984375 C 310.613281 252.984375 310.679688 253.125 310.679688 253.308594 C 310.679688 253.699219 312.183594 254.992188 313.105469 255.386719 C 315.140625 256.261719 316.113281 256.378906 317.40625 255.960938 C 320.6875 254.902344 322.46875 252.683594 322.46875 249.640625 C 322.46875 248.808594 322.375 247.953125 322.261719 247.722656 C 322.144531 247.515625 321.914062 247.03125 321.75 246.664062 C 321.128906 245.347656 318.722656 243.523438 317.613281 243.523438 C 317.382812 243.523438 317.128906 243.363281 317.058594 243.152344 C 316.988281 242.945312 316.921875 234.40625 316.921875 224.183594 L 316.921875 205.5625 L 315.71875 204.175781 L 241.667969 204.335938 L 241.34375 203.367188 C 240.972656 202.261719 239.609375 200.621094 238.429688 199.90625 C 237.066406 199.050781 235.472656 198.753906 233.992188 199.03125 C 231.820312 199.46875 229.671875 201.292969 228.976562 203.277344 L 228.679688 204.175781 L 227.082031 204.246094 C 226.226562 204.292969 223.5 204.269531 221.074219 204.175781 C 216.382812 203.992188 216.289062 203.96875 216.84375 202.953125 C 217.722656 201.335938 218.925781 195.683594 218.925781 193.050781 C 218.925781 192.082031 219.015625 191.550781 219.226562 191.484375 C 219.363281 191.4375 227.707031 191.460938 237.761719 191.550781 L 255.996094 191.714844 L 256.136719 192.246094 C 256.34375 193.191406 258.191406 195.039062 259.511719 195.636719 C 261.542969 196.558594 263.601562 196.375 265.65625 195.105469 C 266.558594 194.554688 267.042969 193.953125 267.898438 192.453125 C 268.269531 191.785156 268.386719 191.183594 268.386719 189.753906 C 268.386719 188.761719 268.292969 187.859375 268.152344 187.792969 C 268.039062 187.722656 267.921875 187.445312 267.921875 187.191406 C 267.921875 186.914062 267.34375 186.128906 266.605469 185.390625 C 265.566406 184.375 264.964844 183.984375 263.902344 183.660156 C 261.542969 182.921875 259.210938 183.5 257.476562 185.230469 C 256.714844 185.992188 255.671875 187.8125 255.671875 188.367188 C 255.671875 188.53125 249.523438 188.597656 237.296875 188.597656 L 218.925781 188.597656 L 218.925781 185.828125 L 225.488281 185.828125 C 229.210938 185.828125 232.328125 185.738281 232.652344 185.597656 C 232.976562 185.484375 233.460938 185.042969 233.714844 184.628906 C 234.132812 183.960938 234.179688 183.453125 234.179688 180.105469 L 234.179688 176.367188 L 236.097656 176.367188 C 237.785156 176.367188 238.085938 176.4375 238.476562 176.851562 C 239.261719 177.707031 240.742188 178.605469 241.898438 178.882812 C 244.554688 179.527344 247.585938 178.007812 248.878906 175.351562 C 250.011719 173 249.386719 169.652344 247.492188 167.992188 C 246.914062 167.484375 244.71875 166.445312 244.234375 166.445312 C 243.933594 166.445312 243.886719 165.613281 243.886719 160.789062 L 243.886719 155.136719 L 251.953125 155.136719 L 252.089844 155.875 C 252.160156 156.289062 252.207031 159.105469 252.160156 162.105469 L 252.089844 167.574219 L 251.351562 168.3125 C 250.496094 169.121094 250.425781 169.492188 250.910156 170.621094 C 251.445312 171.890625 252.089844 172.328125 253.410156 172.304688 C 254.355469 172.304688 254.65625 172.167969 255.257812 171.589844 C 256.183594 170.667969 256.296875 169.097656 255.535156 168.246094 C 255.050781 167.738281 255.027344 167.460938 254.957031 161.480469 L 254.863281 155.25 L 277.398438 155.207031 C 289.789062 155.160156 302.011719 155.226562 304.554688 155.320312 L 309.179688 155.480469 L 309.246094 156.175781 C 309.363281 157.488281 311.097656 160.214844 311.789062 160.214844 C 311.953125 160.214844 312.066406 160.304688 312.066406 160.421875 C 312.066406 160.535156 312.253906 160.675781 312.484375 160.742188 C 312.691406 160.835938 313.292969 161.042969 313.800781 161.230469 C 315.535156 161.898438 317.429688 161.644531 319.277344 160.488281 C 320.179688 159.9375 320.664062 159.335938 321.542969 157.789062 C 322.167969 156.660156 322.261719 153.890625 321.707031 152.597656 C 320.988281 150.9375 319.253906 149.390625 317.382812 148.742188 C 316.433594 148.398438 314.539062 148.351562 313.960938 148.652344 C 313.753906 148.765625 313.175781 149.042969 312.714844 149.226562 C 312.230469 149.4375 311.304688 150.242188 310.632812 150.984375 L 309.433594 152.367188 L 254.980469 152.367188 L 254.980469 147.058594 L 260.25 147.058594 C 266.050781 147.058594 266.398438 146.988281 267.066406 145.675781 C 267.414062 144.980469 267.460938 144.265625 267.4375 140.597656 L 267.414062 136.328125 L 289.832031 136.257812 L 312.277344 136.210938 L 312.96875 135.359375 L 313.683594 134.480469 L 313.683594 116.457031 L 314.515625 116.160156 C 315.441406 115.835938 317.105469 114.289062 317.542969 113.367188 C 318.308594 111.703125 318.285156 110.273438 317.453125 108.265625 C 316.644531 106.375 314.449219 105.058594 312.066406 105.058594 C 310.75 105.058594 310.378906 105.148438 309.386719 105.773438 C 308.136719 106.558594 307.445312 107.203125 307.445312 107.597656 C 307.445312 107.710938 307.351562 107.828125 307.261719 107.828125 C 306.890625 107.828125 306.519531 109.371094 306.519531 110.875 C 306.519531 113.203125 307.792969 115.210938 309.824219 116.089844 L 310.679688 116.480469 L 310.632812 124.90625 L 310.566406 133.328125 L 289.023438 133.398438 L 267.460938 133.441406 L 267.460938 130.695312 C 267.460938 127.972656 267.460938 127.949219 268.109375 127.535156 C 269.5625 126.519531 269.679688 126.519531 279.480469 126.519531 L 288.886719 126.519531 L 289.507812 125.921875 L 290.109375 125.296875 L 290.179688 114.890625 C 290.203125 109.164062 290.226562 102.910156 290.226562 100.972656 L 290.226562 97.464844 L 290.898438 97.074219 C 291.820312 96.519531 292.882812 95.367188 292.882812 94.878906 C 292.882812 94.648438 293 94.394531 293.117188 94.328125 C 293.4375 94.117188 293.390625 92.871094 293.046875 91.859375 C 292.628906 90.703125 292.074219 90.011719 290.988281 89.339844 L 290.085938 88.789062 L 290.132812 82.304688 L 290.15625 75.816406 L 291.035156 75.289062 C 292.628906 74.296875 293.460938 72.3125 293 70.554688 C 292.398438 68.15625 290.34375 66.796875 287.84375 67.140625 C 287.058594 67.257812 286.597656 67.511719 285.859375 68.226562 C 285.351562 68.757812 284.773438 69.402344 284.632812 69.679688 C 284.261719 70.347656 284.238281 72.3125 284.609375 73.140625 C 284.863281 73.71875 285.90625 74.847656 286.96875 75.703125 C 287.289062 75.980469 287.335938 76.71875 287.289062 82.511719 L 287.222656 88.996094 L 286.691406 89.273438 C 285.117188 90.058594 284.332031 91.371094 284.332031 93.242188 C 284.332031 94.328125 284.472656 94.789062 285.003906 95.640625 C 285.394531 96.265625 286.019531 96.863281 286.480469 97.097656 L 287.269531 97.464844 L 287.40625 103.511719 C 287.613281 111.105469 287.613281 123.128906 287.429688 123.613281 C 287.3125 123.933594 286.320312 123.980469 278.785156 123.980469 L 270.304688 123.980469 L 270.328125 122.390625 C 270.328125 120.519531 270.050781 119.851562 268.707031 118.558594 C 267.761719 117.65625 266.398438 117.058594 265.265625 117.058594 C 264.292969 117.058594 262.652344 117.980469 261.683594 119.066406 C 260.964844 119.875 260.757812 120.335938 260.640625 121.328125 C 260.320312 123.75 261.152344 125.367188 263.460938 126.773438 L 264.246094 127.257812 L 264.109375 133.535156 L 261.40625 133.558594 C 259.117188 133.558594 258.632812 133.628906 258.285156 133.972656 C 257.914062 134.34375 257.867188 134.945312 257.800781 139.328125 L 257.730469 144.289062 L 255.765625 144.289062 C 253.570312 144.289062 252.574219 144.636719 252.34375 145.488281 C 252.277344 145.789062 252.207031 147.382812 252.207031 149.019531 C 252.207031 150.683594 252.113281 152.136719 252 152.25 C 251.859375 152.390625 250.101562 152.457031 247.839844 152.414062 L 243.886719 152.34375 L 243.886719 134.945312 L 245.085938 134.367188 C 248.902344 132.589844 250.101562 128.433594 247.859375 124.835938 C 247.285156 123.933594 245.550781 122.597656 244.949219 122.597656 C 244.765625 122.597656 244.53125 122.480469 244.464844 122.367188 C 244.394531 122.226562 243.5625 122.136719 242.613281 122.136719 C 241.667969 122.136719 240.835938 122.226562 240.765625 122.367188 C 240.695312 122.480469 240.417969 122.597656 240.140625 122.597656 C 239.886719 122.597656 239.078125 123.21875 238.269531 124.027344 C 236.722656 125.597656 236.257812 126.636719 236.257812 128.480469 L 236.257812 129.519531 L 230.480469 129.519531 L 230.480469 125.757812 L 230.503906 122.019531 L 231.796875 120.636719 C 233.671875 118.628906 237.113281 115.003906 239.820312 112.210938 C 246.195312 105.589844 253.683594 97.8125 255.441406 95.964844 C 256.527344 94.835938 258.101562 93.195312 258.976562 92.34375 L 260.527344 90.773438 L 261.660156 91.328125 C 263.160156 92.085938 265.378906 92.109375 266.953125 91.394531 C 268.128906 90.863281 269.773438 89.457031 269.773438 88.972656 C 269.773438 88.8125 269.839844 88.671875 269.957031 88.671875 C 270.347656 88.671875 270.765625 87.082031 270.765625 85.511719 C 270.765625 84.195312 270.648438 83.59375 270.210938 82.765625 C 269.585938 81.519531 268.5 80.386719 267.554688 79.925781 C 267.183594 79.765625 266.722656 79.535156 266.535156 79.441406 C 266.257812 79.304688 266.191406 78.609375 266.191406 75.402344 C 266.191406 71.78125 266.210938 71.503906 266.652344 71.273438 C 267.53125 70.789062 268.339844 69.726562 268.476562 68.871094 C 268.730469 67.234375 268.410156 66.355469 267.183594 65.273438 L 266.074219 64.300781 L 266.121094 57.609375 C 266.191406 51.03125 266.191406 50.941406 266.675781 50.871094 C 267.320312 50.777344 269.171875 49.070312 269.75 47.988281 C 270.441406 46.742188 270.417969 44.292969 269.726562 42.957031 C 268.363281 40.441406 264.78125 39.242188 262.328125 40.488281 C 260.6875 41.339844 259.785156 42.472656 259.164062 44.386719 C 258.746094 45.726562 258.769531 45.957031 259.742188 48.21875 C 260.109375 49.023438 261.105469 49.949219 262.238281 50.480469 L 263 50.847656 L 263.136719 57.242188 C 263.230469 60.75 263.230469 63.863281 263.160156 64.140625 C 263.09375 64.417969 262.628906 65.0625 262.144531 65.570312 C 261.21875 66.542969 260.851562 67.695312 261.105469 68.894531 C 261.289062 69.773438 262.285156 71.132812 262.699219 71.132812 C 262.882812 71.132812 263.09375 71.296875 263.160156 71.503906 C 263.347656 71.964844 263.300781 76.394531 263.117188 78.058594 C 262.976562 79.210938 262.882812 79.347656 262.261719 79.558594 C 260.503906 80.132812 259.09375 81.519531 258.261719 83.433594 C 257.9375 84.21875 257.890625 87.195312 258.214844 87.402344 C 258.355469 87.472656 258.445312 87.863281 258.445312 88.234375 C 258.445312 88.949219 258.421875 88.996094 251.511719 96.148438 C 249.800781 97.949219 247.515625 100.328125 246.429688 101.480469 C 245.34375 102.613281 243.101562 104.941406 241.460938 106.671875 C 239.796875 108.382812 237.507812 110.78125 236.375 111.980469 C 235.21875 113.179688 232.882812 115.605469 231.175781 117.359375 C 229.464844 119.113281 227.984375 120.773438 227.890625 121.050781 C 227.824219 121.328125 227.753906 123.359375 227.730469 125.527344 L 227.707031 129.519531 L 210.835938 129.519531 L 210.835938 120.980469 L 212.871094 120.980469 C 214.648438 120.980469 214.949219 120.914062 215.574219 120.425781 L 216.265625 119.875 L 216.335938 115.1875 C 216.382812 112.375 216.519531 110.367188 216.660156 110.203125 C 216.796875 110.042969 217.191406 109.902344 217.539062 109.902344 C 218.996094 109.902344 220.519531 108.679688 221.699219 106.558594 C 222.300781 105.496094 222.414062 103.003906 221.929688 101.78125 C 221.214844 99.957031 219.503906 98.480469 217.492188 97.878906 L 216.382812 97.582031 L 216.359375 96.402344 C 216.335938 95.78125 216.3125 94.394531 216.289062 93.335938 L 216.242188 91.441406 L 225.925781 91.441406 C 236.304688 91.441406 236.535156 91.417969 237.136719 90.242188 C 237.296875 89.917969 237.4375 88.394531 237.460938 86.25 C 237.53125 82.996094 237.554688 82.789062 237.992188 82.71875 C 239.425781 82.488281 241.574219 80.871094 242.128906 79.578125 C 243.101562 77.433594 243.167969 76.417969 242.523438 74.640625 C 241.4375 71.710938 239.425781 70.304688 236.421875 70.347656 C 230.851562 70.441406 228.125 77.085938 232.074219 80.964844 C 232.539062 81.402344 233.230469 81.957031 233.601562 82.140625 C 233.992188 82.347656 234.363281 82.601562 234.433594 82.695312 C 234.546875 82.902344 234.570312 84.035156 234.457031 87.101562 L 234.410156 88.648438 L 216.496094 88.558594 L 216.382812 86.019531 C 216.3125 84.609375 216.3125 81.773438 216.382812 79.671875 C 216.496094 76.003906 216.519531 75.863281 216.984375 75.796875 C 217.769531 75.679688 219.292969 74.25 219.824219 73.09375 C 221.257812 70.027344 219.363281 66.378906 215.964844 65.710938 C 213.910156 65.296875 211.34375 66.496094 210.304688 68.363281 C 209.632812 69.5625 209.679688 72.101562 210.371094 73.324219 C 210.925781 74.339844 212.058594 75.425781 212.871094 75.75 C 213.378906 75.957031 213.378906 76.003906 213.402344 80.824219 C 213.402344 83.480469 213.425781 86.320312 213.445312 87.101562 L 213.46875 88.558594 L 201.707031 88.558594 L 201.707031 70.554688 L 202.421875 70.324219 C 204.0625 69.796875 205.242188 68.527344 206.003906 66.472656 C 206.535156 65.019531 206.535156 64.441406 206.121094 63.011719 C 205.679688 61.578125 205.402344 61.117188 204.433594 60.035156 C 201.476562 56.777344 196.484375 57.519531 194.171875 61.554688 C 193.5 62.757812 193.410156 65.734375 194.007812 66.980469 C 194.542969 68.0625 196.183594 69.585938 197.382812 70.117188 L 198.355469 70.535156 L 198.355469 118.441406 L 191.953125 118.394531 L 185.527344 118.328125 L 185.457031 112.789062 C 185.410156 109.742188 185.457031 106.925781 185.527344 106.535156 C 185.621094 106.003906 185.828125 105.773438 186.40625 105.566406 C 188.253906 104.894531 190.265625 101.964844 190.265625 99.910156 C 190.265625 99.058594 189.847656 97.625 189.292969 96.613281 C 188.785156 95.6875 186.867188 93.980469 186.335938 93.980469 C 185.34375 93.980469 185.367188 94.464844 185.550781 68.824219 C 185.6875 48.355469 185.757812 44.363281 186.035156 44.363281 C 186.960938 44.363281 189.039062 42.425781 189.757812 40.855469 C 190.289062 39.703125 190.449219 37.347656 190.058594 36.5625 C 189.941406 36.355469 189.710938 35.871094 189.546875 35.480469 C 189.109375 34.554688 187.792969 33.285156 186.613281 32.664062 C 185.644531 32.15625 183.515625 31.855469 182.40625 32.039062 Z M 123.355469 120.035156 L 124.417969 121.097656 L 136.019531 121.144531 L 147.625 121.210938 L 147.625 145.558594 L 142.054688 145.628906 L 136.484375 145.675781 L 133.433594 142.445312 L 130.359375 139.210938 L 117.96875 139.167969 L 105.558594 139.097656 L 105.558594 133.882812 C 105.558594 129.058594 105.535156 128.597656 105.121094 128.15625 C 104.589844 127.582031 103.664062 127.535156 103.085938 128.066406 C 102.714844 128.414062 102.667969 128.898438 102.667969 133.835938 L 102.667969 139.210938 L 95.96875 139.210938 L 95.96875 133.558594 C 95.96875 128.296875 95.992188 127.90625 96.382812 127.90625 C 97.007812 127.90625 98.441406 126.613281 99.15625 125.410156 C 99.710938 124.464844 99.78125 124.097656 99.757812 122.480469 C 99.734375 121.304688 99.59375 120.3125 99.339844 119.757812 C 98.902344 118.765625 97.492188 117.3125 96.523438 116.851562 C 96.152344 116.6875 95.667969 116.457031 95.457031 116.34375 C 95.226562 116.226562 94.28125 116.136719 93.332031 116.136719 L 91.644531 116.136719 L 90.628906 115.027344 C 90.097656 114.425781 88.039062 112.28125 86.097656 110.273438 C 84.15625 108.242188 82.5625 106.417969 82.5625 106.210938 C 82.5625 106.003906 82.863281 105.496094 83.230469 105.058594 L 83.902344 104.25 L 95.667969 104.132812 C 108.285156 104.019531 108.007812 104.042969 108.449219 102.84375 C 108.5625 102.589844 108.65625 96.355469 108.703125 88.996094 C 108.769531 74.019531 108.816406 72.519531 109.28125 72.519531 C 110.203125 72.519531 112.332031 70.71875 112.886719 69.496094 L 113.183594 68.824219 L 123.238281 68.824219 Z M 133.6875 91.140625 C 133.734375 103.441406 133.753906 114.566406 133.753906 115.902344 L 133.753906 118.328125 L 126.476562 118.464844 L 126.476562 68.824219 L 133.640625 68.824219 Z M 213.425781 94.71875 C 213.378906 96.542969 213.308594 98.066406 213.261719 98.113281 C 213.214844 98.15625 212.570312 98.203125 211.828125 98.25 C 209.703125 98.34375 209.054688 98.550781 208.476562 99.359375 L 207.945312 100.097656 L 208.015625 109.257812 L 208.109375 118.441406 L 201.867188 118.441406 L 201.707031 115.925781 C 201.613281 114.542969 201.613281 108.542969 201.683594 102.589844 C 201.773438 96.65625 201.84375 91.71875 201.820312 91.601562 C 201.820312 91.511719 204.457031 91.441406 207.667969 91.441406 L 213.492188 91.441406 Z M 212.335938 108.910156 L 213.609375 109.742188 L 213.5625 114.035156 L 213.492188 118.328125 L 210.949219 118.328125 L 210.882812 113.179688 C 210.859375 110.367188 210.882812 108.058594 210.949219 108.058594 C 211.019531 108.058594 211.644531 108.425781 212.335938 108.910156 Z M 182.429688 118.441406 L 162.992188 118.441406 L 162.992188 114.890625 C 162.992188 112.257812 163.0625 111.289062 163.292969 111.21875 C 163.433594 111.148438 167.777344 111.105469 172.929688 111.128906 L 182.292969 111.171875 Z M 160.035156 121.417969 C 160.082031 121.605469 160.082031 124.121094 160.035156 127.027344 C 159.964844 132.058594 159.941406 132.289062 159.527344 132.289062 C 159.039062 132.289062 157.121094 133.28125 156.429688 133.882812 C 156.199219 134.089844 155.734375 134.710938 155.386719 135.289062 C 154.855469 136.210938 154.789062 136.582031 154.789062 138.40625 C 154.789062 140.367188 154.832031 140.550781 155.527344 141.542969 C 157.097656 143.78125 158.53125 144.542969 161.238281 144.542969 C 162.902344 144.566406 163.15625 144.496094 164.332031 143.757812 C 165.234375 143.207031 165.835938 142.582031 166.4375 141.636719 C 167.222656 140.367188 167.269531 140.183594 167.246094 138.3125 C 167.246094 136.675781 167.152344 136.167969 166.714844 135.40625 C 165.972656 134.113281 165.210938 133.351562 164.011719 132.75 L 162.992188 132.21875 L 162.992188 121.28125 L 164.21875 121.121094 C 166.066406 120.914062 182.128906 120.957031 182.269531 121.1875 C 182.335938 121.28125 182.429688 123.820312 182.476562 126.773438 L 182.570312 132.175781 L 181.945312 133.097656 C 180.859375 134.710938 180.882812 136.558594 182.015625 138.242188 C 182.523438 139.050781 182.570312 139.257812 182.5 141.636719 L 182.40625 144.175781 L 177.253906 144.289062 C 171.820312 144.40625 171.636719 144.453125 171.011719 145.535156 C 170.828125 145.859375 170.6875 148.050781 170.621094 152.34375 L 170.503906 158.691406 L 168.308594 159.820312 C 165.558594 161.25 161.535156 164.25 159.316406 166.535156 C 158.394531 167.507812 157.539062 168.289062 157.421875 168.289062 C 157.332031 168.289062 157.144531 168.152344 157.050781 167.96875 C 156.960938 167.78125 156.199219 166.929688 155.367188 166.050781 C 154.535156 165.175781 153.355469 163.90625 152.707031 163.214844 C 151.160156 161.480469 146.375 156.335938 144.363281 154.214844 C 143.460938 153.265625 142.121094 151.8125 141.359375 151.003906 C 140.621094 150.175781 139.765625 149.273438 139.488281 148.972656 C 139.1875 148.675781 138.957031 148.375 138.957031 148.328125 C 138.957031 148.257812 141.242188 148.214844 144.0625 148.214844 L 149.171875 148.214844 L 150.511719 146.78125 L 150.511719 121.027344 L 155.25 121.050781 C 159.15625 121.074219 159.988281 121.144531 160.035156 121.417969 Z M 198.585938 126.105469 C 198.746094 132.636719 198.308594 132.128906 203.855469 132.289062 L 207.945312 132.40625 L 207.945312 144.175781 L 196.875 144.242188 C 188.164062 144.289062 185.757812 144.242188 185.597656 144.011719 C 185.503906 143.851562 185.410156 142.859375 185.410156 141.796875 C 185.410156 140.042969 185.433594 139.90625 185.875 139.90625 C 187.238281 139.90625 188.992188 138.40625 189.457031 136.835938 C 190.125 134.574219 188.832031 132.265625 186.5 131.574219 L 185.410156 131.273438 L 185.410156 126.265625 C 185.410156 123.542969 185.457031 121.234375 185.527344 121.164062 C 185.597656 121.097656 188.554688 121.050781 192.066406 121.074219 L 198.46875 121.097656 Z M 208.0625 129.542969 L 201.707031 129.40625 L 201.636719 125.480469 C 201.613281 123.335938 201.636719 121.441406 201.683594 121.28125 C 201.773438 121.050781 202.605469 120.980469 204.941406 120.980469 L 208.0625 120.980469 Z M 239.007812 133.675781 L 240.1875 134.480469 L 240.1875 153.980469 L 222.578125 154.027344 C 212.871094 154.050781 204.109375 154.097656 203.09375 154.097656 C 202.074219 154.097656 201.011719 154.214844 200.757812 154.375 C 200.480469 154.535156 199.8125 155.207031 199.257812 155.875 C 197.890625 157.511719 197.269531 158.136719 196.992188 158.136719 C 196.851562 158.136719 195.953125 157.882812 195.003906 157.558594 C 192.808594 156.820312 191.746094 156.589844 188.4375 156.175781 C 186.984375 155.988281 185.710938 155.757812 185.597656 155.644531 C 185.480469 155.527344 185.433594 153.542969 185.457031 151.191406 L 185.527344 146.945312 L 197.316406 146.898438 C 205.679688 146.851562 209.242188 146.757812 209.609375 146.574219 C 210.742188 145.972656 210.859375 145.234375 210.8125 138.589844 L 210.789062 132.40625 L 227.589844 132.40625 L 227.660156 138.980469 L 227.707031 145.558594 L 226.667969 146.667969 C 225.648438 147.75 225.628906 147.796875 225.628906 149.367188 C 225.628906 150.820312 225.695312 151.027344 226.34375 151.789062 C 227.3125 152.875 228.148438 153.289062 229.394531 153.289062 C 231.636719 153.289062 233.253906 151.652344 233.253906 149.367188 C 233.253906 147.890625 232.839844 147.082031 231.519531 146.019531 L 230.480469 145.167969 L 230.480469 132.3125 L 233.554688 132.242188 C 236.859375 132.175781 236.742188 132.128906 239.007812 133.675781 Z M 264.480469 144.289062 L 260.296875 144.289062 L 260.296875 136.210938 L 264.386719 136.210938 Z M 182.40625 151.074219 C 182.40625 153.289062 182.476562 155.25 182.546875 155.4375 C 182.636719 155.714844 182.269531 155.828125 180.628906 156.035156 C 178.824219 156.289062 177.089844 156.636719 174.894531 157.191406 C 173.601562 157.511719 173.625 157.582031 173.625 152.273438 C 173.625 149.574219 173.695312 147.289062 173.785156 147.21875 C 173.855469 147.128906 175.84375 147.058594 178.175781 147.058594 L 182.40625 147.058594 Z M 208.132812 158.460938 C 206.8125 160.214844 205.125 162.035156 204.824219 162.035156 C 204.640625 162.058594 203.925781 161.691406 203.277344 161.25 C 202.605469 160.8125 202.007812 160.445312 201.9375 160.445312 C 201.867188 160.445312 201.542969 160.28125 201.21875 160.074219 L 200.644531 159.683594 L 201.289062 159.011719 C 202.214844 158.019531 202.5625 157.929688 205.703125 157.929688 L 208.570312 157.90625 Z M 231.359375 165.636719 C 231.382812 169.558594 231.359375 173.019531 231.289062 173.296875 L 231.175781 173.804688 L 223.546875 173.828125 C 219.363281 173.828125 215.664062 173.78125 215.34375 173.691406 C 214.949219 173.597656 214.300781 172.90625 213.378906 171.542969 C 211.78125 169.238281 210.835938 168.082031 208.6875 165.84375 L 207.113281 164.207031 L 208.109375 163.191406 C 208.664062 162.636719 209.863281 161.320312 210.8125 160.257812 L 212.523438 158.367188 L 221.90625 158.414062 L 231.289062 158.484375 Z M 240.882812 166.859375 L 240.09375 167.230469 C 238.386719 168.035156 236.722656 170.851562 236.722656 172.929688 L 236.722656 173.851562 L 235.519531 173.78125 L 234.292969 173.691406 L 234.226562 166.027344 L 234.179688 158.367188 L 240.882812 158.367188 Z M 189.804688 160.859375 C 190.242188 160.976562 191.191406 161.207031 191.882812 161.367188 C 197.9375 162.707031 203.972656 166.675781 208.015625 171.960938 C 208.800781 173 209.449219 173.898438 209.449219 173.96875 C 209.449219 174.035156 209.75 174.523438 210.097656 175.050781 C 211.320312 176.851562 212.9375 180.730469 213.65625 183.523438 C 215.898438 192.453125 213.585938 202.46875 207.597656 209.691406 C 205.726562 211.976562 205.359375 212.34375 203.785156 213.660156 C 199.789062 217.054688 195.90625 218.898438 190.265625 220.144531 C 188.09375 220.628906 181.066406 220.699219 179.171875 220.261719 C 176.304688 219.59375 175.75 219.453125 174.433594 219.015625 C 172.285156 218.300781 168.539062 216.359375 166.785156 215.070312 C 165.28125 213.9375 162.160156 211.007812 160.890625 209.484375 C 158.601562 206.738281 156.40625 202.421875 155.410156 198.636719 C 154.8125 196.375 154.695312 195.707031 154.417969 193.167969 C 154.003906 189.289062 154.417969 185.898438 155.875 181.214844 C 158.117188 173.921875 163.847656 167.25 170.988281 163.699219 C 172.261719 163.050781 173.460938 162.519531 173.648438 162.519531 C 173.832031 162.519531 174.085938 162.429688 174.226562 162.335938 C 174.339844 162.222656 174.894531 162.011719 175.472656 161.851562 C 176.050781 161.667969 176.769531 161.460938 177.089844 161.367188 C 177.667969 161.183594 179.773438 160.765625 181.136719 160.582031 C 182.246094 160.421875 188.925781 160.652344 189.804688 160.859375 Z M 231.289062 176.875 C 231.359375 177.175781 231.382812 178.699219 231.359375 180.289062 L 231.289062 183.175781 L 224.957031 183.246094 C 218.324219 183.289062 218 183.269531 218 182.277344 C 218 182.023438 217.628906 180.753906 217.167969 179.484375 C 216.707031 178.214844 216.289062 177.015625 216.21875 176.804688 C 216.128906 176.460938 216.796875 176.414062 223.640625 176.390625 L 231.152344 176.34375 Z M 150.652344 181.261719 C 150.234375 183.289062 150.050781 184.515625 149.796875 186.453125 L 149.519531 188.597656 L 127.398438 188.597656 L 127.398438 180.523438 L 150.789062 180.523438 Z M 149.703125 193.605469 C 150.050781 198.3125 151.066406 201.890625 153.355469 206.53125 L 154.949219 209.808594 L 152.683594 212.300781 C 151.4375 213.660156 150.28125 214.882812 150.121094 214.976562 C 149.957031 215.070312 149.308594 215.136719 148.710938 215.089844 L 147.625 215.023438 L 147.554688 213.914062 C 147.484375 212.898438 147.554688 212.738281 148.5 211.675781 C 149.632812 210.429688 149.910156 209.507812 149.679688 207.960938 C 149.449219 206.53125 147.761719 204.867188 146.328125 204.660156 C 145.75 204.566406 145.082031 204.566406 144.828125 204.660156 C 143.507812 205.097656 142.816406 205.5625 142.191406 206.484375 C 141.613281 207.335938 141.5 207.707031 141.5 208.882812 C 141.5 210.199219 141.542969 210.316406 142.492188 211.261719 C 143.023438 211.816406 143.742188 212.414062 144.109375 212.597656 C 144.640625 212.855469 144.734375 213.0625 144.734375 213.890625 C 144.734375 214.445312 144.640625 214.953125 144.503906 215.023438 C 144.316406 215.136719 112.976562 215.207031 83.765625 215.160156 L 76.089844 215.136719 L 76.136719 211.03125 L 76.207031 206.945312 L 100.9375 206.875 C 119.425781 206.828125 125.804688 206.738281 126.199219 206.554688 C 127.332031 205.976562 127.398438 205.492188 127.398438 198.292969 L 127.398438 191.597656 L 149.542969 191.597656 Z M 198.425781 224.875 C 198.515625 227 198.515625 229.191406 198.402344 233.4375 L 198.355469 234.753906 L 191.953125 234.707031 L 185.527344 234.636719 L 185.457031 229.953125 L 185.410156 225.292969 L 186.40625 225.292969 C 187.929688 225.292969 192.277344 224.625 193.730469 224.136719 C 194.054688 224.046875 194.773438 223.816406 195.351562 223.652344 C 195.929688 223.492188 196.761719 223.167969 197.199219 222.9375 C 197.636719 222.730469 198.078125 222.546875 198.148438 222.523438 C 198.238281 222.523438 198.355469 223.585938 198.425781 224.875 Z M 175.472656 224.277344 C 176.835938 224.761719 179.933594 225.292969 181.296875 225.292969 C 182.246094 225.292969 182.40625 225.363281 182.523438 225.800781 C 182.59375 226.101562 182.617188 228.199219 182.59375 230.484375 L 182.523438 234.636719 L 178.316406 234.707031 L 174.085938 234.753906 L 174.085938 229.332031 C 174.085938 226.355469 174.15625 223.90625 174.273438 223.90625 C 174.363281 223.90625 174.894531 224.070312 175.472656 224.277344 Z M 211.503906 226.101562 C 211.898438 227.230469 213.886719 229.308594 215.109375 229.882812 C 216.542969 230.554688 218.53125 230.53125 220.125 229.839844 C 221.789062 229.101562 222.96875 227.714844 223.640625 225.683594 C 223.753906 225.316406 225.117188 225.292969 247.882812 225.292969 L 271.992188 225.292969 L 272.800781 226.054688 C 273.214844 226.46875 274.417969 227.691406 275.433594 228.753906 C 276.429688 229.839844 278.347656 231.824219 279.664062 233.183594 L 282.066406 235.652344 L 281.90625 236.644531 C 281.464844 239.53125 281.511719 240.777344 282.066406 241.886719 C 282.691406 243.109375 283.9375 244.421875 284.910156 244.886719 C 285.304688 245.046875 285.789062 245.277344 285.996094 245.394531 C 286.226562 245.507812 286.574219 245.601562 286.757812 245.601562 C 287.058594 245.601562 287.105469 246.175781 287.105469 249.640625 L 287.105469 253.679688 L 268.546875 253.679688 C 254.425781 253.679688 249.917969 253.609375 249.710938 253.402344 C 249.546875 253.238281 249.433594 252.871094 249.433594 252.570312 C 249.433594 251.578125 247.746094 249.640625 246.3125 248.945312 C 244.695312 248.183594 243.703125 248.046875 242.429688 248.371094 C 239.308594 249.152344 237.183594 251.460938 237.183594 254.023438 L 237.183594 255.0625 L 234.179688 255.0625 L 234.179688 249.546875 C 234.179688 244.238281 234.203125 244.007812 234.640625 243.871094 C 234.894531 243.800781 235.402344 243.339844 235.796875 242.878906 C 236.398438 242.136719 236.488281 241.863281 236.488281 240.570312 C 236.488281 239.183594 236.46875 239.09375 235.496094 238.125 C 234.410156 237.039062 233.371094 236.691406 232.007812 236.945312 C 230.457031 237.246094 228.863281 239.140625 228.863281 240.683594 C 228.863281 241.5625 229.695312 242.945312 230.734375 243.777344 L 231.683594 244.539062 L 231.453125 254.945312 L 221.257812 255.015625 L 211.066406 255.0625 L 211.066406 245.808594 C 211.066406 239.460938 210.996094 236.414062 210.8125 236.070312 C 210.1875 234.847656 209.839844 234.753906 205.726562 234.753906 L 201.890625 234.753906 L 201.730469 233.53125 C 201.542969 231.9375 201.542969 225.636719 201.753906 225.453125 C 201.820312 225.363281 203.992188 225.292969 206.558594 225.292969 L 211.207031 225.292969 Z M 182.40625 255.0625 L 177.34375 255.0625 L 177.066406 253.722656 C 176.746094 252.246094 175.820312 250.722656 174.78125 249.984375 L 174.085938 249.5 L 174.085938 237.292969 L 182.40625 237.292969 Z M 198.355469 255.0625 L 185.410156 255.0625 L 185.410156 246.339844 C 185.410156 241.539062 185.480469 237.523438 185.574219 237.453125 C 185.644531 237.363281 188.554688 237.292969 192.046875 237.292969 L 198.355469 237.292969 Z M 208.0625 255.0625 L 201.890625 255.0625 L 201.753906 246.386719 C 201.660156 241.609375 201.660156 237.617188 201.730469 237.5 C 201.796875 237.382812 203.253906 237.292969 204.964844 237.292969 L 208.0625 237.292969 Z M 170.851562 243.175781 C 170.851562 248.394531 170.828125 248.601562 170.386719 248.601562 C 170.15625 248.601562 169.648438 248.714844 169.300781 248.855469 C 166.804688 249.894531 166.066406 250.445312 165.121094 252.039062 C 164.566406 252.960938 164.496094 253.332031 164.496094 255.0625 C 164.496094 256.769531 164.566406 257.164062 165.121094 258.0625 C 165.835938 259.285156 166.714844 260.140625 167.914062 260.808594 C 168.609375 261.199219 169.1875 261.292969 170.710938 261.292969 C 173.046875 261.292969 174.015625 260.855469 175.636719 259.148438 L 176.699219 258.015625 L 179.054688 257.878906 C 180.375 257.832031 181.667969 257.832031 181.96875 257.902344 L 182.523438 258.039062 L 182.40625 271.03125 C 182.335938 278.1875 182.246094 284.046875 182.222656 284.070312 C 182.199219 284.117188 182.015625 284.140625 181.804688 284.140625 C 180.742188 284.140625 178.546875 286.378906 177.785156 288.246094 L 177.484375 289.007812 L 172.121094 288.871094 L 172.054688 282.523438 C 172.03125 279.039062 172.054688 275.972656 172.097656 275.714844 C 172.167969 275.460938 172.445312 275.140625 172.722656 275.023438 C 173 274.886719 173.554688 274.402344 173.949219 273.917969 C 174.59375 273.085938 174.664062 272.878906 174.664062 271.332031 C 174.640625 269.878906 174.570312 269.554688 174.015625 268.839844 C 172.90625 267.363281 172.074219 266.949219 170.386719 266.96875 C 169.164062 266.96875 168.722656 267.085938 167.984375 267.570312 C 166.503906 268.585938 165.996094 269.554688 165.996094 271.402344 C 165.996094 272.878906 166.042969 273.039062 166.828125 273.941406 C 167.269531 274.46875 168.007812 275.070312 168.449219 275.277344 L 169.234375 275.648438 L 169.234375 298.449219 L 164.519531 298.449219 C 159.964844 298.449219 159.804688 298.425781 159.6875 297.988281 C 159.617188 297.710938 159.550781 292.03125 159.527344 285.339844 C 159.527344 278.648438 159.457031 272.925781 159.363281 272.601562 C 159.179688 271.839844 158.855469 271.449219 158.160156 271.171875 C 157.839844 271.054688 154.789062 270.960938 151.367188 270.960938 L 145.148438 270.941406 L 144.6875 269.902344 C 144.433594 269.324219 143.832031 268.425781 143.347656 267.894531 L 142.46875 266.949219 L 145.382812 263.945312 C 149.703125 259.46875 153.125 255.9375 155.6875 253.214844 C 156.960938 251.878906 159.339844 249.386719 161.003906 247.675781 C 162.667969 245.96875 165.488281 243.039062 167.246094 241.148438 C 169.023438 239.277344 170.550781 237.753906 170.667969 237.753906 C 170.757812 237.753906 170.851562 240.199219 170.851562 243.175781 Z M 208.0625 285.523438 L 201.820312 285.523438 L 201.820312 257.832031 L 208.0625 257.832031 Z M 208.0625 285.523438 " fill-opacity="1" fill-rule="nonzero"/></g><path fill="#000000" d="M 179.933594 172.90625 C 176.191406 173.875 173.09375 175.835938 170.433594 178.90625 C 165.257812 184.882812 164.679688 193.628906 169.003906 200.230469 C 172.628906 205.746094 177.921875 208.652344 184.371094 208.652344 C 188.878906 208.675781 192.738281 207.269531 196.089844 204.40625 C 199.09375 201.84375 201.035156 198.683594 202.074219 194.714844 C 202.46875 193.167969 202.492188 188.113281 202.097656 186.636719 C 200.320312 180.105469 196.019531 175.351562 189.917969 173.253906 C 187.351562 172.351562 182.683594 172.214844 179.933594 172.90625 Z M 188.625 178.652344 C 193.710938 180.542969 196.96875 185.160156 196.96875 190.445312 C 196.96875 194.207031 195.929688 196.816406 193.386719 199.351562 C 190.589844 202.167969 187.515625 203.320312 183.445312 203.046875 C 178.085938 202.699219 173.949219 199.398438 172.097656 194.023438 C 171.636719 192.660156 171.566406 188.691406 171.984375 187.304688 C 173.417969 182.621094 177.578125 178.835938 182.058594 178.121094 C 183.585938 177.890625 187.375 178.191406 188.625 178.652344 Z M 188.625 178.652344 " fill-opacity="1" fill-rule="nonzero"/><path fill="#000000" d="M 182.683594 185.207031 C 182.269531 185.320312 181.484375 185.828125 180.929688 186.3125 C 177.738281 189.128906 178.476562 193.976562 182.359375 195.683594 C 183.839844 196.328125 184.789062 196.351562 186.40625 195.753906 C 188.625 194.921875 189.871094 193.097656 189.871094 190.558594 C 189.894531 189.199219 189.804688 188.804688 189.292969 188 C 187.675781 185.484375 185.15625 184.398438 182.683594 185.207031 Z M 182.683594 185.207031 " fill-opacity="1" fill-rule="nonzero"/><path fill="#000000" d="M 235.613281 34.484375 C 233.808594 35.363281 232.792969 37.371094 233.277344 39.101562 C 233.578125 40.140625 235.289062 42.054688 235.933594 42.054688 C 236.210938 42.054688 236.257812 43.003906 236.257812 48.839844 L 236.234375 55.601562 L 235.613281 55.925781 C 233.601562 56.964844 232.953125 58.996094 234.039062 60.839844 C 234.617188 61.808594 235.035156 62.109375 236.488281 62.59375 C 237.207031 62.847656 237.4375 62.800781 238.40625 62.363281 C 240.050781 61.578125 240.648438 60.679688 240.648438 58.949219 C 240.648438 57.585938 240.605469 57.472656 239.726562 56.59375 C 239.21875 56.085938 238.707031 55.671875 238.570312 55.671875 C 238.429688 55.671875 238.339844 53.25 238.339844 48.863281 C 238.339844 43.140625 238.386719 42.054688 238.664062 42.054688 C 238.847656 42.054688 239.449219 41.59375 240.027344 41.039062 C 240.765625 40.277344 241.089844 39.746094 241.203125 39.101562 C 241.503906 37.117188 240.582031 35.246094 238.894531 34.464844 C 237.621094 33.863281 236.882812 33.863281 235.613281 34.484375 Z M 235.613281 34.484375 " fill-opacity="1" fill-rule="nonzero"/><g clip-path="url(#989786b74d)"><path fill="#000000" d="M 277.261719 162.613281 C 275.15625 163.398438 273.839844 164.851562 273.03125 167.34375 C 272.199219 169.882812 273.863281 173.160156 276.636719 174.453125 L 277.515625 174.867188 L 277.628906 182.507812 C 277.722656 188.644531 277.816406 190.214844 278.070312 190.539062 C 278.992188 191.644531 277.929688 191.597656 306.636719 191.597656 C 332.082031 191.597656 333.585938 191.621094 333.699219 191.992188 C 334.277344 193.722656 335.574219 195.3125 336.9375 195.960938 C 337.304688 196.121094 337.792969 196.351562 338 196.46875 C 338.230469 196.582031 339.132812 196.675781 340.011719 196.675781 C 341.210938 196.675781 341.859375 196.539062 342.597656 196.144531 C 344.261719 195.292969 345.625 193.746094 346.203125 192.058594 C 346.550781 191.089844 346.597656 188.921875 346.273438 188.714844 C 346.15625 188.644531 346.042969 188.367188 346.042969 188.113281 C 346.042969 186.867188 343.640625 184.492188 341.71875 183.820312 C 338.832031 182.828125 335.273438 184.492188 333.976562 187.46875 L 333.46875 188.597656 L 280.75 188.484375 L 280.609375 175.074219 L 281.210938 174.796875 C 281.535156 174.636719 281.976562 174.523438 282.160156 174.523438 C 282.597656 174.523438 284.679688 172.445312 284.886719 171.796875 C 284.980469 171.519531 285.328125 171.222656 285.625 171.152344 C 286.390625 170.945312 301.296875 171.175781 301.621094 171.382812 C 301.78125 171.476562 301.898438 171.753906 301.898438 172.003906 C 301.898438 172.238281 301.992188 172.445312 302.082031 172.445312 C 302.199219 172.445312 302.40625 172.699219 302.566406 173 C 302.984375 173.738281 304.53125 174.523438 305.597656 174.523438 C 306.082031 174.523438 306.890625 174.289062 307.421875 174.011719 C 310.242188 172.515625 310.265625 168.519531 307.46875 166.953125 C 305.710938 165.960938 303.863281 166.375 302.382812 168.105469 L 301.828125 168.753906 L 285.488281 168.753906 L 285.488281 167.851562 C 285.488281 166.074219 283.753906 163.742188 281.71875 162.796875 C 280.519531 162.242188 278.507812 162.152344 277.261719 162.613281 Z M 277.261719 162.613281 " fill-opacity="1" fill-rule="nonzero"/></g><path fill="#000000" d="M 103.363281 221.855469 C 102.183594 222.523438 100.449219 224.460938 100.242188 225.339844 C 99.894531 226.859375 100.011719 228.59375 100.542969 229.699219 C 101.074219 230.855469 102.945312 232.675781 103.570312 232.675781 C 104.519531 232.675781 104.519531 232.722656 104.519531 246.847656 L 104.519531 260.484375 L 103.734375 260.992188 C 102.714844 261.640625 101.882812 262.769531 101.558594 263.945312 C 101.074219 265.632812 102.183594 267.941406 103.847656 268.769531 C 104.796875 269.230469 106.785156 269.253906 107.707031 268.792969 C 109.070312 268.101562 110.296875 266.140625 110.296875 264.664062 C 110.273438 263.578125 109.347656 261.960938 108.285156 261.179688 L 107.339844 260.484375 L 107.363281 246.777344 C 107.40625 234.847656 107.453125 233.046875 107.753906 232.90625 C 107.9375 232.816406 108.515625 232.539062 109.027344 232.285156 C 110.597656 231.546875 112.144531 229.03125 112.144531 227.230469 C 112.144531 225.0625 110.480469 222.570312 108.472656 221.714844 C 107.316406 221.207031 104.378906 221.277344 103.363281 221.855469 Z M 103.363281 221.855469 " fill-opacity="1" fill-rule="nonzero"/><path fill="#000000" d="M 65.757812 255.386719 C 64.671875 255.777344 62.917969 257.070312 62.917969 257.484375 C 62.917969 257.671875 62.847656 257.832031 62.730469 257.832031 C 62.5 257.832031 61.992188 259.515625 61.992188 260.347656 C 61.992188 261.800781 63.195312 263.578125 64.789062 264.476562 L 65.574219 264.917969 L 65.691406 273.316406 C 65.757812 278.324219 65.898438 281.855469 66.035156 282.0625 C 66.660156 283.007812 66.269531 282.988281 93.492188 282.988281 L 119.65625 282.988281 L 120.074219 283.910156 C 120.582031 285.085938 122.015625 286.496094 123.355469 287.117188 C 124.441406 287.625 127.03125 287.785156 127.816406 287.394531 C 128.023438 287.277344 128.507812 287.046875 128.855469 286.886719 C 129.78125 286.449219 130.726562 285.5 131.492188 284.210938 C 132.046875 283.238281 132.136719 282.871094 132.136719 281.253906 C 132.136719 279.640625 132.046875 279.269531 131.492188 278.300781 C 130.082031 275.925781 128.347656 274.863281 125.78125 274.863281 C 124.855469 274.863281 124.003906 274.976562 123.863281 275.117188 C 123.726562 275.253906 123.449219 275.371094 123.238281 275.371094 C 122.800781 275.371094 120.953125 277.03125 120.28125 278.023438 C 120.027344 278.417969 119.773438 278.96875 119.75 279.292969 L 119.65625 279.871094 L 68.695312 279.984375 L 68.695312 264.800781 L 69.574219 264.363281 C 70.082031 264.132812 70.726562 263.484375 71.191406 262.816406 C 71.835938 261.847656 71.929688 261.5 71.929688 260.230469 C 71.929688 257.808594 70.726562 256.214844 68.230469 255.363281 C 67.261719 255.015625 66.753906 255.015625 65.757812 255.386719 Z M 65.757812 255.386719 " fill-opacity="1" fill-rule="nonzero"/><path fill="#000000" d="M 257.847656 296.925781 C 256.851562 297.480469 256.527344 298.011719 256.527344 299.046875 C 256.527344 299.902344 256.644531 300.226562 257.269531 300.847656 L 257.984375 301.585938 L 257.9375 305.855469 L 257.867188 310.101562 L 257.246094 310.402344 C 256.390625 310.796875 255.71875 311.808594 255.648438 312.78125 C 255.511719 314.511719 255.648438 314.996094 256.503906 315.847656 C 257.292969 316.632812 257.429688 316.679688 258.816406 316.679688 C 260.273438 316.679688 260.339844 316.65625 261.335938 315.640625 C 262.304688 314.671875 262.375 314.535156 262.375 313.378906 C 262.375 312.273438 262.285156 312.019531 261.636719 311.324219 C 261.21875 310.886719 260.6875 310.449219 260.480469 310.378906 C 260.109375 310.242188 260.066406 309.800781 260.066406 305.832031 L 260.066406 301.402344 L 260.757812 300.710938 C 261.3125 300.15625 261.449219 299.832031 261.449219 299.023438 C 261.449219 298.148438 261.335938 297.941406 260.597656 297.316406 C 259.671875 296.554688 258.722656 296.417969 257.847656 296.925781 Z M 257.847656 296.925781 " fill-opacity="1" fill-rule="nonzero"/><path fill="#000000" d="M 105.90625 311.28125 C 104.21875 311.601562 102.371094 313.054688 101.675781 314.648438 C 100.683594 316.886719 100.683594 317.925781 101.675781 320.117188 C 102.160156 321.179688 103.824219 322.816406 104.886719 323.257812 C 105.953125 323.695312 108.378906 323.71875 109.394531 323.28125 C 112.492188 321.988281 114.226562 318.570312 113.230469 315.757812 C 112.308594 313.101562 110.273438 311.441406 107.800781 311.28125 C 107.082031 311.210938 106.230469 311.234375 105.90625 311.28125 Z M 105.90625 311.28125 " fill-opacity="1" fill-rule="nonzero"/><path fill="#000000" d="M 196.898438 317.324219 C 196.367188 317.902344 196.414062 318.824219 196.945312 319.308594 C 197.382812 319.703125 198.632812 319.726562 216.820312 319.703125 L 236.257812 319.703125 L 236.257812 322.125 C 236.257812 324.410156 236.234375 324.550781 235.75 324.734375 C 235.148438 324.964844 234.132812 326.003906 233.738281 326.765625 C 233.601562 327.042969 233.484375 327.894531 233.484375 328.679688 C 233.484375 330.386719 234.109375 331.472656 235.679688 332.441406 L 236.722656 333.109375 L 236.722656 344.742188 L 237.296875 345.25 C 237.875 345.757812 237.96875 345.757812 246.40625 345.757812 L 254.933594 345.757812 L 255.648438 346.867188 C 256.042969 347.488281 256.644531 348.113281 256.992188 348.273438 C 257.359375 348.457031 257.824219 348.664062 258.03125 348.78125 C 258.585938 349.058594 260.226562 349.035156 260.410156 348.757812 C 260.480469 348.617188 260.734375 348.527344 260.941406 348.527344 C 261.152344 348.527344 261.75 348.066406 262.285156 347.511719 C 263 346.726562 263.277344 346.242188 263.394531 345.433594 C 263.878906 342.320312 261.449219 339.941406 258.261719 340.378906 C 257.453125 340.496094 257.011719 340.75 256.089844 341.625 L 254.957031 342.757812 L 239.449219 342.757812 L 239.539062 337.773438 C 239.65625 333.15625 239.679688 332.765625 240.09375 332.535156 C 240.789062 332.164062 241.828125 331.148438 242.175781 330.480469 C 242.59375 329.671875 242.59375 327.78125 242.152344 326.925781 C 241.757812 326.140625 240.671875 325.058594 239.910156 324.664062 C 239.402344 324.410156 239.378906 324.273438 239.308594 321.410156 C 239.261719 318.640625 239.21875 318.386719 238.664062 317.671875 L 238.085938 316.910156 L 217.675781 316.910156 C 198.191406 316.910156 197.246094 316.933594 196.898438 317.324219 Z M 196.898438 317.324219 " fill-opacity="1" fill-rule="nonzero"/><path stroke-linecap="butt" transform="matrix(0.75, 0, 0, 0.75, 293.785209, 134.04752)" fill="none" stroke-linejoin="miter" d="M -0.0000706108 0.49914 L 12.114514 0.49914 " stroke="#000000" stroke-width="1" stroke-opacity="1" stroke-miterlimit="4"/></svg>