<svg xmlns="http://www.w3.org/2000/svg" width="500" height="500" viewBox="0 0 375 375"><defs><clipPath id="a"><path d="M83.004 69.176h192.75v165H83.004Zm0 0"/></clipPath><clipPath id="b"><path d="M71.078 192H135v17.965H71.078Zm0 0"/></clipPath><clipPath id="c"><path d="M251 74.215h64.578V92H251Zm0 0"/></clipPath><clipPath id="e"><path d="M.922.121H45V48H.922Zm0 0"/></clipPath><clipPath id="f"><path d="M129 .121h41V47h-41Zm0 0"/></clipPath><clipPath id="g"><path d="M203 23h39v40.719h-39Zm0 0"/></clipPath><clipPath id="d"><path d="M0 0h245v64H0z"/></clipPath></defs><g clip-path="url(#a)"><path d="M272.805 119.934c.425.195.89.386 1.355.582.469.195.895.425 1.399.62-.23-.464-.543-.894-.817-1.32a26 26 0 0 0-.969-1.242 33 33 0 0 0-1.086-1.164c-5.085-4.812-11.992-6.48-18.785-5.781a8.95 8.95 0 0 0-3.027-2.133 21.6 21.6 0 0 1 7.063.309 21.8 21.8 0 0 0-4.93-1.746c1.746-.309 6.133.117 6.21 0a.25.25 0 0 0-.077-.348c-1.243-.777-2.602-1.438-4.036-1.863 2.407-.196 4.774.117 7.141.89-2.02-1.433-4.426-2.48-6.871-3.027.352-.152.66-.387 1.012-.543 1.433-.074 2.87.117 4.308.508l1.008.308c.465.196 1.008.387 1.477.582.308.157 1.125.582 1.472.739-.27-.274-.89-.934-1.164-1.164-.425-.352-.855-.739-1.281-1.086l-.93-.66q-.352-.235-.699-.47c1.434-.425 5.512.079 5.82.04.118-.113.079-.27 0-.387-1.359-1.281-3.183-2.055-5.007-2.484 2.836-.852 5.824-.735 8.734.039.078 0 .156 0 .195-.078.078-.078-2.523-1.938-4-2.442a25 25 0 0 0-1.824-.508c2.406-.503 7.766-.425 7.84-.582.078-.152-.035-.347-.191-.386-3.844-1.399-8.192-1.63-12.344-.856-6.403 1.164-12.031 4.813-16.766 9.121-1.555 1.473-2.875 3.258-3.96 5.16-1.126-3.996-2.677-7.761-4.813-10.98-3.844-6.016-9.86-10.168-16.223-9.855 3.688.464 7.063 2.328 9.781 5.16-3.222-1.942-6.715-2.793-10.285-1.32 2.988-.426 5.899.738 8.188 2.949-1.63-.235-3.375-.118-4.891.62 1.824-.234 3.531.348 5.086 1.243-.504.156-1.012.308-1.516.543l-.851.387c-.39.234-.817.468-1.203.699-.235.156-.895.62-1.125.816.27-.078 1.007-.234 1.277-.312.39-.078.855-.117 1.242-.192l.817-.039c1.785 0 3.492.426 5.007 1.434-2.289-.348-4.695.039-6.87 1.012 2.367-.157 4.695.308 6.714 1.55-1.59-.195-3.144 0-4.656.387 2.133.04 4.23.504 6.055 1.785a14 14 0 0 0-5.668.235c1.902.117 3.726.62 5.394 1.472h-.039a7.2 7.2 0 0 0-3.105 1.477c2.68-.274 5.164 1.668 6.406 4.344-.352-.114-.7-.23-1.047-.309-1.516-1.398-3.262-2.64-5.203-3.531-5.86-2.602-12.535-4.461-19.445-3.957-4.54.308-9.043 1.55-12.77 3.644-.156.078-.195.274-.117.39.078.118 5.707-1.202 8.308-1.32a12.6 12.6 0 0 0-1.785.856c-1.437.773-3.765 2.988-3.687 3.023q.115.06.23 0c2.875-1.355 5.977-2.132 9.121-2.054-1.824.816-3.57 1.941-4.734 3.336-.078.117-.078.273.078.312.348-.039 4.504-1.437 6.094-1.398-.235.195-.426.386-.66.582l-.817.777c-.386.387-.734.852-1.125 1.242-.195.27-.777 1.008-.968 1.282.308-.196 1.085-.778 1.394-.973.469-.27.973-.582 1.438-.852l1.007-.504a18.5 18.5 0 0 1 4.426-1.476l1.164.234a21.8 21.8 0 0 0-6.597 4.227c2.289-1.203 4.734-2.055 7.296-2.442-1.437.735-2.714 1.63-3.843 2.559-.114.078-.114.234 0 .352.117.078 4.62-1.36 6.523-1.477-1.746.738-3.379 1.629-4.812 2.64 2.367-1.011 4.851-1.632 7.336-1.94-1.282.816-2.332 1.823-3.028 2.91 3.14-1.786 7.18-1.63 10.13-.274a15.7 15.7 0 0 0-6.755 3.066c3.028-1.316 6.871-1.59 9.86-.543-.079 0-.118 0-.196.04a30 30 0 0 0-9.238 3.183c-1.824 1.047-3.57 2.25-5.16 3.723-2.602 2.367-4.813 5.355-6.406 8.617-.27.582-.543 1.164-.813 1.785-.234.582-.508 1.203-.7 1.824-.233.621-.425 1.242-.62 1.864-.7.152-1.36.347-2.059.542-3.105.97-6.054 2.91-8.422 5.391 1.438-2.598 3.844-4.578 6.598-5.664-2.016.195-4.035.816-5.82 1.863.039-.039.039-.078.078-.117.113-.195.23-.426.347-.62.079-.118.118-.196.196-.31.078-.078.156-.195.23-.273 1.399-1.434 5.36-3.027 5.32-3.105 0-.075-.039-.114-.117-.153-1.32-.504-2.87-.504-4.27-.195 1.63-1.32 3.532-2.094 5.59-2.64a16.6 16.6 0 0 0-4.308.66c1.824-1.317 3.453-2.368 5.59-3.337-1.75-.777-3.766-.425-5.473.235.543-.934 1.551-1.516 2.95-1.863.425-.118.89-.235 1.32-.352.308-.039 1.512-.504 1.355-.543-.308-.039-1.086-.152-1.394-.191-.469-.04-.973-.04-1.438-.04h-.273a17.9 17.9 0 0 1 5.668-3.53c-1.32-.079-2.715.038-4.074.269 1.628-1.629 3.765-2.676 6.054-3.14a13.4 13.4 0 0 0-3.531 0l.039-.04c.309-.273.656-.508 1.008-.777.347-.235.7-.504 1.047-.738.351-.23.738-.465 1.086-.739-.426-.039-.891 0-1.356 0-.43.04-.894.078-1.32.157-.426.078-.895.156-1.32.273-9.317 2.48-14.829 12.105-15.254 21.379-2.29-3.375-5.317-5.586-9.43-7.797-.508-1.633-1.168-3.223-1.902-4.812 2.597 2.25 5.082 4.617 7.683 6.867a74 74 0 0 0-2.21-4.153c-3.223-5.433-7.145-10.359-11.723-14.316-.582-.508-1.164-.973-1.786-1.477-.62-.464-1.203-.89-1.824-1.359-3.492-2.406-7.297-4.191-11.14-5.121a27 27 0 0 0-6.985-.777c-.234 0-.504.039-.738.039 2.832-1.204 6.094-1.317 8.887.156-.852-1.438-2.133-2.715-3.649-3.649 2.836 0 5.707.465 8.5 1.516a25.3 25.3 0 0 0-5.664-2.95c2.133-.155 7.375 1.087 7.528.97a.35.35 0 0 0-.04-.465c-1.394-1.164-2.91-2.211-4.578-2.989 2.95.118 5.782.891 8.461 2.211-2.21-2.093-4.93-3.84-7.84-4.89.426-.153.852-.348 1.32-.543 1.747.156 3.454.62 5.122 1.32l1.164.543c.543.313 1.164.66 1.71.973.349.23 1.278.89 1.63 1.125-.274-.39-.973-1.32-1.203-1.672-.426-.504-.895-1.086-1.36-1.55l-1.008-.97c-.273-.234-.503-.468-.777-.699 1.785-.312 6.637.93 7.024.93a.317.317 0 0 0 .039-.465c-1.434-1.824-3.532-3.066-5.664-3.957 3.57-.621 7.14-.04 10.515 1.394.078.04.195 0 .274-.035.078-.117-2.758-2.836-4.465-3.687-.66-.352-1.395-.66-2.094-.895 2.988-.23 9.469.66 9.547.465.117-.191.039-.426-.156-.543-4.422-2.328-9.625-3.336-14.786-3.023-7.878.504-15.253 4.226-21.699 8.922-3.687 2.796-6.676 6.87-8.617 11.37.66-4.152 2.875-7.992 6.02-10.827a20.1 20.1 0 0 0-6.871 5.394c0-.078.039-.113.039-.191.039-.352.117-.66.195-1.012.035-.152.074-.348.113-.504s.117-.309.195-.465c1.125-2.64 5.668-6.676 5.59-6.828-.039-.078-.156-.156-.234-.156-1.98-.04-4.113.738-5.82 1.863 1.511-2.562 3.687-4.582 6.172-6.328-1.903.777-3.766 1.746-5.473 3.027 1.785-2.675 3.414-4.886 5.86-7.215-2.72-.156-5.278 1.278-7.22 3.063.27-1.473 1.32-2.793 3.028-3.957.504-.348 1.086-.738 1.59-1.086.39-.195 1.746-1.437 1.554-1.398-.43.078-1.554.351-1.98.43-.621.19-1.32.425-1.942.62l-.347.153a24.5 24.5 0 0 1 5.82-7.528 26 26 0 0 0-5.316 2.407c1.398-2.989 3.726-5.434 6.597-7.22-1.59.391-3.222.934-4.734 1.747 0-.04.04-.04.04-.078l.929-1.512c.351-.504.699-1.008 1.011-1.516.348-.503.735-1.007 1.086-1.511a24 24 0 0 0-1.785.66c-.582.27-1.164.543-1.707.852-.547.312-1.09.66-1.633 1.011-11.214 7.953-13.855 23.594-9.82 36.242-4.734-3.375-9.934-4.851-16.57-5.78-9.047-1.4-18.711.234-26.2 5.55-1.124.773-2.175 1.668-3.183 2.598-.504.464-.969.972-1.438 1.437-.152.117-.152.348-.039.504.118.195 6.485-3.105 9.59-3.996-2.215 1.785-4.039 4.152-5.164 6.71a.24.24 0 0 0 .04.274c.077.117 3.261-2.406 4.85-3.261 1.825-.97 3.727-1.707 5.708-2.094-1.863 1.668-3.57 3.726-4.387 6.055-.039.117 0 .23.078.347.426 0 5.043-3.105 6.985-3.492-.192.312-.387.66-.582 1.008l-.66 1.36c-.27.66-.544 1.398-.813 2.058-.156.465-.508 1.629-.66 2.094a60 60 0 0 1 1.281-1.747c.465-.504.93-1.125 1.395-1.629l1.011-.972c2.328-1.977 4.54-2.91 6.285-3.219-2.597 2.133-4.734 4.89-6.246 7.84 2.29-2.332 4.891-4.191 7.84-5.395-1.437 1.434-3.687 5.004-3.61 5.121.153.157 5.161-3.027 7.411-3.726a29.4 29.4 0 0 0-4.734 5.086c2.445-2.059 5.203-3.61 8.113-4.695v.039c-1.203 1.511-2.059 3.257-2.406 4.964 3.066-3.335 8.035-4.23 12.187-2.988a14 14 0 0 0-1.668.934c-4.816 1.355-9.277 3.84-12.422 7.644-3.34 4.153-5.976 8.961-7.531 14.164-2.172 7.567-2.25 15.871-1.242 23.864.039.156.156.312.312.351.196.035.621-2.68.778-3.844.152.817.386 1.63.734 2.407.04.078.195.078.195 0 .426-2.602.739-4.969.934-7.567a24.9 24.9 0 0 0 3.453 7.254c-1.398-4.074-1.707-8.379-.582-12.222.813 2.64 2.172 5.355 3.996 7.492.078 0-.308-3.883-.504-5.434-.27-1.668-.89-5.086-1.164-6.715 1.008 2.793 2.563 5.63 4.93 7.567 0 0-1.707-3.414-2.211-5.121a19 19 0 0 1-.621-2.602 30 30 0 0 1-.352-2.598c-.117-1.437.117-2.793.117-4.191v.04c.465 3.839 1.786 7.76 3.805 11.136a24.7 24.7 0 0 1-1.203-6.363c1.008 1.355 2.172 2.558 3.414 3.648a.31.31 0 0 0 .313.074c.191-.035-.856-3.722-1.13-5.277-.269-1.512-.425-2.95-.347-4.188.582 2.172 1.902 4.227 3.453 5.86-1.863-3.028-2.367-6.559-1.281-9.586.816 2.406 2.332 4.89 4.348 6.402-1.243-2.676-1.125-5.512-.23-7.957.733 2.098 1.862 4 3.14 5.707.195.27.62.117.508-.195-.543-2.055-.973-4.074-.973-5.977a18.4 18.4 0 0 0 2.254 4.153c-.352-2.676-.117-5.122.695-7.293a31 31 0 0 0 .856 4.152c.855-4.66 2.949-8.578 6.132-11.645.078-.078.196-.152.27-.23 7.61 37.098 14.168 71.207 8.93 112.223h8.847c4.426-40.899-3.258-72.68-14.633-113.891.04 0 .079.035.118.035.234.156.464.313.699.469l.66.582c.387.387.89.93 1.242 1.355.192.196.426.508.582.739.778 1.007 1.434 2.172 2.133 3.375.078.156.273.078.234-.075-.425-1.671-1.007-3.418-1.863-4.968-.078-.118-.117-.235-.195-.348 2.137 1.316 4 3.336 5.433 5.703-.347-2.601-1.164-5.238-2.445-7.605.777.62 1.516 1.394 2.215 2.289.23.308.465.582.66.89.191.313.387.66.621.973.23.309.387.66.582 1.008 0 .039.582 1.047.582 1.047.117.195.387.117.309-.117-.156-.813-.27-1.63-.543-2.442-.117-.39-.23-.816-.387-1.203-.156-.39-.312-.816-.465-1.203-.078-.156-.156-.352-.234-.504a10.1 10.1 0 0 1 4.617 3.453c.856 1.125 1.516 2.445 2.059 3.84a15.5 15.5 0 0 0-.504-2.211c-.66-2.367-1.942-4.578-3.688-6.21 3.106 2.444 5.668 5.858 7.493 9.741a34 34 0 0 0-1.168-6.094c1.398 1.747 2.523 3.766 3.648 5.747.156.27.43-2.254.234-3.301.97 1.398 2.832 5.238 2.871 4.89.157-.972.196-1.98.118-3.066 1.746 1.629 3.3 3.414 4.582 5.59-2.524-.195-5.047 0-7.532.656-.93.234-1.824.582-2.718.934q-.639.287-1.278.582c-.117.039-.195.195-.156.308.04.157 5.008-.464 7.258-.27a12.8 12.8 0 0 0-5.008 3.141c-.039.04-.078.118-.039.196.04.078 2.719-.778 4-.93 1.434-.195 2.832-.234 4.27.04-1.633.62-3.223 1.589-4.348 2.91-.04.077-.078.152-.04.23.27.078 4.075-.813 5.434-.582-.195.156-.425.351-.62.504l-.778.738c-.348.351-.7.777-1.047 1.164-.195.273-.738.973-.934 1.242.274-.195 1.012-.66 1.282-.851.43-.235.894-.508 1.32-.739l.895-.39c2.015-.735 3.687-.774 4.93-.582-2.216.777-4.31 2.058-6.02 3.609 2.058-.969 4.23-1.55 6.445-1.629-1.281.582-3.61 2.367-3.61 2.484.079.157 4.114-.738 5.743-.62a19 19 0 0 0-4.348 2.171c2.098-.738 4.309-1.125 6.446-1.086-1.165.7-2.137 1.63-2.797 2.68 2.836-1.437 6.289-.816 8.734.969-.426.039-.852.117-1.281.195-3.531-.312-7.024.27-10.051 1.977a29 29 0 0 0-8.383 7.453c-3.262 4.422-5.32 9.855-6.64 15.363-.036.117.039.234.117.313.117.078 1.05-1.59 1.437-2.329a13 13 0 0 0-.117 1.747c0 .078.078.117.117.039.93-1.59 1.668-3.106 2.446-4.735-.157 1.863.039 3.801.503 5.586.079-3.023.934-5.898 2.602-8.148-.117 1.941.117 4.035.813 5.898.039.04.738-2.637.972-3.687.196-1.164.66-3.567.852-4.696-.04 2.059.312 4.309 1.398 6.172 0 0-.27-2.64-.195-3.918q.058-.93.234-1.863c.117-.621.235-1.203.387-1.785.273-.973.777-1.824 1.09-2.719-.621 2.64-.7 5.55-.196 8.227.079-1.551.348-3.063.778-4.461.347 1.164.812 2.21 1.355 3.222.04.075.118.114.196.153.117.039.351-2.637.543-3.723.195-1.05.43-2.059.816-2.836-.156 1.555.195 3.262.816 4.695-.507-2.441.04-4.886 1.512-6.593-.078 1.785.348 3.8 1.281 5.277-.156-2.059.582-3.883 1.786-5.277 0 1.55.234 3.062.699 4.5.078.234.386.195.386 0 .157-1.473.352-2.91.817-4.153.039 1.125.195 2.25.465 3.262.425-1.824 1.164-3.379 2.21-4.621a19.4 19.4 0 0 0-.464 2.91c1.707-2.832 4-4.926 6.832-6.168a.6.6 0 0 1 .234-.078c-4.039 26.195-7.144 53.863-20.535 79.473h5.785c12.848-25.766 14.672-50.02 17.196-79.82 0 .038.039.038.039.038l.347.465.309.543c.156.348.351.813.508 1.203.078.192.152.426.191.621.274.852.43 1.786.582 2.715 0 .117.156.117.156 0 .118-1.203.157-2.484 0-3.726 0-.075-.039-.192-.039-.27 1.086 1.399 1.785 3.145 2.176 5.043.387-1.785.504-3.722.23-5.586.352.582.66 1.281.895 2.016.078.234.152.508.23.738.04.274.118.504.157.777.078.27.117.543.156.813 0 .039.117.816.117.855.04.157.23.157.23 0 .079-.582.196-1.125.235-1.707.04-.312.04-.582.04-.894v-.89c0-.118 0-.274-.04-.387.969.851 1.785 1.937 2.172 3.375.273.93.39 1.98.43 3.027.074-.504.191-1.047.23-1.594a9.5 9.5 0 0 0-.89-4.965c1.433 2.367 2.289 5.239 2.558 8.227.352-1.36.621-2.832.7-4.309.468 1.477.738 3.067.972 4.656.039.235.812-1.394.969-2.093.273 1.125.582 4.113.699 3.918.348-.582.621-1.282.816-1.977.93 1.86 1.63 3.84 1.825 6.09.503-1.59.699-3.453.66-5.238 1.511 2.328 2.25 5.316 2.328 8.343.27-1.437.465-2.949.426-4.46.894 1.628 2.793 5.277 2.793 5.003a23 23 0 0 0-.075-3.609c1.164 2.098 2.211 4.27 3.375 6.363-.117-1.086-.234-2.172-.464-3.257-.778-4.348-2.176-8.54-4.192-12.223q-.408-.702-.816-1.399c-.274-.464-.582-.89-.895-1.32-1.59-2.289-3.57-4.305-5.742-5.82a13 13 0 0 0 .234-.66c.114.117.23.195.309.312-.04-.234-.117-.465-.156-.66.195-.543.43-1.125.62-1.707.7.348 1.4.773 2.06 1.242.156.387.308.774.464 1.164-.039-.312-.078-.582-.117-.894.273.195.543.425.816.66a12 12 0 0 0-.894-1.086c-.035-.426-.074-.856-.074-1.242 1.277.699 2.558 1.55 2.636 1.511.118-.074.157-.191.079-.308a15.8 15.8 0 0 0-2.29-3.106c1.903.778 3.57 1.98 5.008 3.532a15.5 15.5 0 0 0-3.96-5.121c.312 0 .66-.04.972-.04.035 0 .035.04.074.04.274.582.547 1.164.856 1.707-.04-.426-.04-.852-.04-1.282a11.3 11.3 0 0 1 2.176 1.668l.618.66c.273.313.586.7.894 1.051.156.23.621.89.817 1.164-.079-.312-.313-1.09-.391-1.398-.152-.426-.348-.934-.504-1.36l-.426-.89c-.117-.235-.234-.43-.351-.66 1.242.23 4.117 2.21 4.386 2.328a.266.266 0 0 0 .157-.313c-.504-1.55-1.551-2.87-2.758-3.957 2.484.465 4.699 1.707 6.562 3.492.04.04.118.04.192.04.078-.04-1.125-2.524-2.016-3.493-.351-.386-.738-.777-1.164-1.086 2.016.582 6.055 2.715 6.133 2.637a.3.3 0 0 0 .035-.387c-2.328-2.597-5.508-4.539-8.965-5.586a23 23 0 0 0-2.87-.62c-.04-.778-.04-1.594 0-2.098.347.816 1.745 2.445 1.745 2.175-.039-1.863-.078-3.804.195-5.628a22.3 22.3 0 0 0 1.942 4.773c-.39-3.531.035-7.062 1.355-10.168-.62 1.941-.582 4.035 0 5.977.157.62.391 1.203.66 1.746-.23-1.203-.308-2.446-.156-3.61.196-1.785.973-3.257 2.02-4.5 0 .157.039.309.039.465.078.348.117.7.195 1.047.078.352.192.7.27 1.012.195.656.468 1.277.699 1.937.078.196.312.117.312-.078 0-.039-.039-.969-.039-1.008 0-.308-.039-.66 0-.968 0-.313.04-.66.04-.973q.059-.465.113-.93c.156-.93.351-1.824.699-2.601.078 2.215.66 4.425 1.594 6.406.039-2.293.582-4.543 1.629-6.445v.351c.039 1.473.386 2.95.855 4.309.04.113.23.074.23-.04 0-1.124-.039-2.253.118-3.3.039-.23.078-.582.117-.774.078-.468.23-1.05.348-1.515l.273-.7c.078-.152.156-.308.23-.425 0 2.562-.152 5.121-.347 7.644a135 135 0 0 1-2.133 15.29 143 143 0 0 1-9.121 29.335 155 155 0 0 1-6.832 13.66c-2.563 4.387-5.317 8.653-8.309 12.766-6.015 8.192-19.754 23.672-27.363 30.309h14.285c7.723-7.645 14.672-16.106 20.492-25.184 2.95-4.539 5.551-9.273 7.996-14.086a151 151 0 0 0 6.29-14.863c3.609-10.09 6.171-20.566 7.566-31.121.7-5.277 1.09-10.594 1.203-15.91.04-1.864 0-3.727-.04-5.59 2.294 2.328 3.224 5.86 2.642 8.965 1.125-2.094 1.707-4.5 1.437-6.828 2.559 2.171 4.035 5.703 2.95 8.96 1.085-.89 1.94-2.132 2.484-3.492a18.6 18.6 0 0 1 .078 7.024 20.4 20.4 0 0 0 1.59-5.004c.464 1.707.234 6.055.347 6.168.157.078.313 0 .39-.113a15.8 15.8 0 0 0 1.786-4.153c.387 2.367.156 4.735-.543 7.102 1.434-2.098 2.445-4.543 2.871-7.024.196.309.426.618.66.97.157 1.398.04 2.831-.312 4.308l-.27 1.007c-.156.504-.386 1.047-.543 1.512a57 57 0 0 0-.699 1.516c.274-.274.93-.973 1.203-1.242.348-.426.778-.895 1.086-1.32l.66-.97c.157-.234.313-.503.465-.738.543 1.399.274 5.434.313 5.782.117.078.308.078.386-.04 1.282-1.433 2.02-3.296 2.407-5.16 1.086 2.754 1.164 5.703.504 8.614 0 .078 0 .156.078.195.078.078 1.941-2.637 2.406-4.152.195-.582.312-1.204.43-1.825.695 2.368.968 7.645 1.125 7.684.191.039.386-.04.425-.23 1.282-3.922 1.282-8.192.196-12.305-1.672-6.207-5.977-11.524-10.946-15.91a19 19 0 0 0-3.222-2.172 16.8 16.8 0 0 0-4.348-3.414h.156q.406-.06.817 0h.426c.156 0 .27.039.425.078 2.29.504 6.25 3.453 6.328 3.375.079-.04.079-.117.079-.195-.274-1.59-1.243-3.141-2.407-4.344 2.29.812 4.23 2.25 6.016 3.918-.934-1.399-1.98-2.715-3.262-3.88 2.406 1.009 4.426 1.977 6.715 3.532-.309-2.176-1.863-4-3.57-5.316 1.242-.04 2.445.62 3.648 1.785.348.347.778.734 1.125 1.086.235.27 1.438 1.203 1.36 1.008-.157-.348-.504-1.204-.66-1.512-.274-.469-.544-1.012-.817-1.438l-.191-.27c2.445.657 4.773 1.821 6.945 3.454a20.3 20.3 0 0 0-2.754-3.883c2.598.66 4.93 2.137 6.79 4.113a14.7 14.7 0 0 0-2.134-3.492c.04 0 .04 0 .078.04.426.39.852.581 1.32.738M171.89 132.816c-.274-1.941-.817-3.918-1.555-5.78 2.215 1.667 4.078 3.956 5.59 6.519a29 29 0 0 0-4.035-.739m5.082 1.086c-.27-1.007-.582-2.054-.97-3.027 1.708 1.516 5.087 4.504 6.017 5.164a28 28 0 0 0-5.047-2.137m28.84 17.426-.583-.234c-.156-.04-.351-.078-.503-.156h1.125c-.04.156-.04.273-.04.39m2.25 1.047c.078-.234.156-.504.273-.738.191.078.387.195.582.273.039.348.117.695.191 1.047q-.52-.291-1.047-.582m3.261-2.562c0-.04 0-.04.04-.079.308.118.66.274 1.046.47.078.308.195.62.274.929-.43-.465-.895-.895-1.36-1.32m34.196-36.09c2.093-1.707 4.964-2.598 7.683-2.016-2.601.348-5.203 1.047-7.683 2.016m0 0"/></g><g clip-path="url(#b)"><path d="M129.969 193.328a40 40 0 0 0-4.961-.812 34 34 0 0 0-5.098-.11 27 27 0 0 0-5.125.785c-.21.051-.422.114-.633.176-.21.059-.422.117-.629.188s-.418.132-.625.207l-.62.226c-.833.317-1.637.68-2.423 1.094a20.6 20.6 0 0 0-4.37 3.098c-.083.078-.165.152-.247.234l-.238.234c-.164.157-.316.325-.473.489s-.3.332-.453.5c-.152.164-.293.34-.437.515q-.212.258-.418.528l-.203.27-.196.273c-.07.093-.132.183-.195.277-.062.094-.129.188-.191.281q-.182.28-.364.567-.351.572-.668 1.175l-.09.172q-.37-.467-.761-.918a19 19 0 0 0-1.801-1.804 18 18 0 0 0-2.055-1.563q-1.1-.715-2.3-1.23a14.4 14.4 0 0 0-2.5-.813 14.1 14.1 0 0 0-5.18-.18c-.836.13-1.66.317-2.473.57q-1.188.376-2.324.903c-.367.18-.742.356-1.098.555l-.27.144a4 4 0 0 0-.265.149l-.523.308q-.262.155-.512.32l-.508.333-.488.344c-.164.117-.328.23-.488.351l-.477.363-.238.184-.23.187-.462.38c-.156.124-.3.257-.453.39l-.441.394c-.149.13-.293.27-.438.407l-.43.406c-.14.133-.277.277-.417.414a38 38 0 0 0-3.102 3.52c1.246-.946 2.488-1.875 3.758-2.743.164-.105.316-.218.477-.324q.248-.156.484-.312c.156-.106.316-.215.48-.313l.489-.3a40 40 0 0 1 1.976-1.133c.16-.094.332-.176.5-.262l.504-.254.508-.238c.168-.078.336-.16.508-.23l.511-.22c.172-.074.348-.136.516-.203.344-.14.691-.25 1.04-.37.171-.06.347-.11.519-.165l.261-.082.262-.066c.176-.043.352-.094.527-.133l.524-.113a15 15 0 0 1 2.101-.274q2.069-.118 4.055.473.976.286 1.883.738c.152.074.3.156.453.235.148.078.293.167.441.253q.219.131.43.274l.211.144q.112.07.211.145a15.6 15.6 0 0 1 2.332 2.05c.234.255.473.516.7.786q.672.808 1.265 1.687.294.44.558.891l.157.27q-.54.069-1.078.167a17 17 0 0 0-1.575.368q-.392.11-.785.25-.399.135-.781.316.394.148.805.254.396.111.8.188c.536.109 1.067.187 1.598.246q1.587.162 3.18.097a23 23 0 0 0 3.164-.34q.786-.148 1.574-.367.388-.116.781-.25c.27-.094.528-.199.785-.32a7 7 0 0 0-.804-.258 16 16 0 0 0-2.402-.434 25 25 0 0 0-1.313-.093l.027-.09a13 13 0 0 1 .563-1.52 17 17 0 0 1 1.008-1.973 17.6 17.6 0 0 1 2.714-3.503c2.098-2.11 4.743-3.692 7.66-4.703a28.5 28.5 0 0 1 4.544-1.16 41 41 0 0 1 4.761-.504 55 55 0 0 1 4.871-.008c1.633.066 3.274.195 4.93.336a41 41 0 0 0-4.777-1.39m0 0"/></g><path d="M216.21 131.707a39.5 39.5 0 0 0-4.964-.809 33 33 0 0 0-5.094-.109 27 27 0 0 0-5.125.785q-.319.078-.632.172c-.211.063-.422.121-.63.188-.21.07-.421.136-.628.207l-.621.226c-.828.317-1.637.684-2.418 1.098a20 20 0 0 0-4.371 3.097c-.082.083-.165.153-.247.231l-.246.238c-.16.156-.312.324-.468.485-.157.164-.305.336-.453.5-.153.164-.297.34-.438.515q-.211.263-.418.531c-.066.09-.137.18-.203.27l-.2.273q-.098.137-.19.274-.1.14-.192.281c-.121.188-.246.38-.363.567-.235.386-.461.777-.668 1.175-.032.055-.059.114-.09.172q-.369-.467-.762-.918a20 20 0 0 0-1.8-1.804 18 18 0 0 0-2.055-1.555q-1.101-.716-2.301-1.23a15 15 0 0 0-2.5-.813 14.2 14.2 0 0 0-5.18-.18c-.84.13-1.664.317-2.473.57q-1.189.376-2.32.899c-.37.18-.742.355-1.097.55l-.27.145c-.09.051-.18.098-.266.153l-.523.308c-.176.102-.344.211-.516.324l-.504.332-.496.344c-.16.117-.324.23-.488.352l-.477.363-.238.184-.23.187-.461.38c-.153.124-.301.257-.45.386l-.445.394c-.148.13-.289.27-.433.407q-.219.203-.43.406c-.145.133-.281.277-.418.418a37 37 0 0 0-3.106 3.52c1.247-.946 2.489-1.872 3.762-2.739.16-.105.313-.219.477-.324.16-.106.324-.207.48-.313.156-.105.317-.215.48-.312l.493-.301a44 44 0 0 1 1.973-1.137c.16-.093.335-.172.5-.257l.503-.258.508-.235c.168-.082.336-.164.508-.23l.512-.219c.172-.074.347-.137.52-.203.34-.14.69-.25 1.035-.375.171-.059.347-.106.523-.16l.258-.082.265-.067c.176-.043.348-.093.524-.136l.523-.114a16 16 0 0 1 2.102-.27 11.8 11.8 0 0 1 5.941 1.2c.153.074.301.16.45.234.152.079.292.168.44.254.15.086.29.18.434.274l.211.144q.106.07.211.145.843.603 1.598 1.312c.25.243.496.485.73.739.239.254.473.52.7.785.453.539.875 1.105 1.265 1.687a18 18 0 0 1 .715 1.16q-.54.07-1.078.168a18 18 0 0 0-1.574.368q-.394.11-.781.25c-.27.09-.528.195-.786.316q.397.151.805.254c.27.074.535.137.805.187.531.11 1.062.188 1.597.246q1.583.164 3.176.098a22 22 0 0 0 3.164-.34q.79-.144 1.574-.367.393-.113.786-.25.399-.14.78-.32a7 7 0 0 0-.804-.258 15 15 0 0 0-2.398-.43 19 19 0 0 0-1.313-.097l.028-.09a15 15 0 0 1 .558-1.52q.225-.504.473-.996.253-.497.535-.976.575-.954 1.266-1.832a17 17 0 0 1 1.468-1.668c2.094-2.114 4.743-3.692 7.66-4.703a28.4 28.4 0 0 1 4.54-1.16 41 41 0 0 1 4.761-.508 56 56 0 0 1 4.871-.004c1.637.066 3.278.191 4.93.336a41 41 0 0 0-4.785-1.395m0 0"/><g clip-path="url(#c)"><path d="M310.809 75.25a40 40 0 0 0-4.965-.812 34 34 0 0 0-5.094-.11 27 27 0 0 0-5.125.785c-.215.051-.426.114-.633.172-.21.063-.422.121-.633.192-.207.07-.418.132-.625.207l-.62.226q-1.244.474-2.423 1.094a20.4 20.4 0 0 0-4.37 3.098c-.083.078-.165.152-.243.23l-.242.238c-.164.157-.313.325-.469.489-.156.16-.305.332-.457.496-.148.168-.293.343-.433.515-.141.176-.286.352-.418.532q-.104.135-.204.27l-.199.273q-.097.136-.195.277c-.063.094-.129.183-.188.281a17 17 0 0 0-.363.567q-.356.573-.672 1.175c-.027.055-.058.114-.086.168a25 25 0 0 0-.761-.914 20 20 0 0 0-1.801-1.804 18 18 0 0 0-2.059-1.563 15 15 0 0 0-2.3-1.227 14 14 0 0 0-2.5-.808 14 14 0 0 0-5.176-.18c-.84.125-1.664.317-2.477.567q-1.19.376-2.32.898c-.367.18-.742.356-1.094.555l-.273.144c-.086.047-.176.094-.266.149l-.523.308a9 9 0 0 0-.512.328l-.508.329-.492.343c-.164.117-.328.23-.488.352l-.48.363-.235.184-.23.187-.466.38c-.152.124-.296.257-.449.39l-.441.39c-.153.133-.293.27-.438.403q-.214.2-.43.406-.208.206-.417.418a37 37 0 0 0-3.102 3.523 85 85 0 0 1 3.758-2.742c.164-.105.316-.219.476-.324.164-.106.325-.207.485-.313.156-.105.316-.214.48-.312l.489-.3a44 44 0 0 1 1.972-1.138c.164-.093.336-.171.504-.257l.5-.254.512-.239c.168-.082.336-.164.508-.23l.511-.219c.172-.074.344-.136.516-.203.344-.14.691-.25 1.035-.371.176-.059.352-.11.524-.164l.261-.082.262-.066c.176-.043.348-.094.523-.133l.528-.114a15 15 0 0 1 2.097-.273 11.9 11.9 0 0 1 4.06.46 11 11 0 0 1 1.882.743c.152.07.3.156.453.23.148.079.293.172.441.254.145.086.29.18.43.274l.211.144q.11.07.215.145a16 16 0 0 1 2.328 2.05c.234.255.473.52.7.786q.672.813 1.265 1.691.294.434.558.891c.051.09.106.18.157.27q-.54.068-1.078.171-.79.14-1.575.364-.392.113-.785.25a9 9 0 0 0-.781.316q.393.153.805.258c.265.07.535.133.8.187q.803.16 1.598.243 1.587.163 3.18.097a21.5 21.5 0 0 0 3.164-.34q.786-.144 1.574-.367.392-.11.785-.25.397-.14.781-.32a8 8 0 0 0-.804-.254q-.404-.11-.801-.191a18 18 0 0 0-1.602-.243 18 18 0 0 0-1.308-.097l.027-.09.16-.504c.118-.34.254-.68.399-1.016q.218-.504.472-.996a18 18 0 0 1 1.781-2.805 18 18 0 0 1 1.47-1.671c2.097-2.11 4.742-3.692 7.66-4.703a29.4 29.4 0 0 1 4.543-1.16 41 41 0 0 1 4.761-.504 56 56 0 0 1 4.871-.004c1.633.062 3.274.191 4.93.332a41 41 0 0 0-4.773-1.391m0 0"/></g><path d="M215.383 192.023a18 18 0 0 0-2.211-.367 16 16 0 0 0-2.27-.047q-1.155.064-2.28.352-.142.032-.282.074l-.281.082a3 3 0 0 0-.278.094l-.277.098c-.371.14-.727.304-1.078.488a9 9 0 0 0-1.946 1.379q-.057.052-.109.105l-.11.106q-.103.1-.206.215c-.07.07-.137.148-.203.222q-.101.11-.196.23c-.062.079-.125.153-.183.235l-.094.121-.086.121q-.046.061-.086.121l-.082.125q-.083.124-.164.254a9 9 0 0 0-.297.524l-.039.078a7 7 0 0 0-.34-.406 9 9 0 0 0-.8-.805 8 8 0 0 0-.919-.695 6.5 6.5 0 0 0-2.137-.906 6.3 6.3 0 0 0-2.304-.079 7.5 7.5 0 0 0-2.137.653c-.164.082-.324.156-.488.242l-.121.066c-.04.02-.082.043-.117.067l-.235.136a3 3 0 0 0-.226.145l-.227.144-.219.157q-.112.074-.218.156l-.211.16-.211.164-.203.168q-.105.083-.203.172l-.196.176q-.097.088-.195.18l-.191.179-.188.188a17 17 0 0 0-1.383 1.566 37 37 0 0 1 1.672-1.215q.105-.075.211-.144l.219-.141q.105-.072.21-.137l.22-.137q.434-.263.878-.503c.075-.04.149-.082.223-.114l.223-.113.226-.105a4 4 0 0 1 .227-.106l.23-.098q.113-.043.23-.09c.153-.062.31-.109.462-.16q.118-.04.23-.074l.117-.035.118-.027.234-.063.234-.05q.464-.091.934-.122a5.3 5.3 0 0 1 1.809.207 5.3 5.3 0 0 1 1.039.434c.066.035.128.074.195.113.066.035.129.082.191.121l.094.063q.051.033.098.066.373.27.71.582c.11.11.223.215.325.332q.158.171.312.348a10 10 0 0 1 .813 1.148q.036.061.066.121-.241.029-.476.075a8 8 0 0 0-1.051.273 3 3 0 0 0-.348.14q.175.067.356.114.179.047.36.082.351.072.71.11.703.07 1.418.042a9.4 9.4 0 0 0 2.11-.312q.17-.053.347-.113c.117-.04.234-.09.348-.141a3 3 0 0 0-.356-.117 4 4 0 0 0-.36-.078 7 7 0 0 0-.71-.11 10 10 0 0 0-.586-.043c.004-.011.008-.027.016-.039q.03-.11.07-.226a8 8 0 0 1 .387-.895 7.7 7.7 0 0 1 .797-1.25q.299-.394.652-.746c.933-.937 2.113-1.64 3.41-2.094q.991-.34 2.023-.515a18 18 0 0 1 2.118-.223 22 22 0 0 1 2.172 0 53 53 0 0 1 2.19.149 18 18 0 0 0-2.12-.622m66.238-71.828a18 18 0 0 0-2.207-.363 15 15 0 0 0-2.27-.047q-1.16.065-2.285.348-.14.035-.28.078c-.095.027-.188.05-.282.082-.09.035-.184.059-.277.094l-.278.101q-.55.21-1.078.485-1.066.564-1.945 1.379l-.11.105-.105.106c-.074.07-.14.144-.211.214s-.137.149-.203.223q-.1.112-.192.23a5 5 0 0 0-.277.356l-.09.121q-.045.061-.086.121l-.082.125q-.082.124-.164.254a10 10 0 0 0-.297.523l-.039.079a7 7 0 0 0-.34-.407 9 9 0 0 0-.8-.804 7.5 7.5 0 0 0-.918-.692 6.6 6.6 0 0 0-1.024-.547 6.15 6.15 0 0 0-3.418-.441 7.5 7.5 0 0 0-1.101.254q-.533.165-1.035.398c-.16.082-.329.16-.489.246l-.12.063-.118.066-.234.137a3 3 0 0 0-.227.145l-.226.148-.22.152a4 4 0 0 0-.218.157l-.21.16-.106.082-.102.082-.207.168c-.07.054-.133.117-.2.172l-.198.175c-.067.059-.13.122-.196.18l-.191.18c-.063.062-.121.125-.184.187a16 16 0 0 0-1.386 1.57 37 37 0 0 1 1.671-1.218c.07-.047.141-.098.215-.145.07-.047.145-.093.215-.14q.104-.072.215-.137l.215-.137q.433-.263.879-.504c.074-.039.148-.082.222-.113l.227-.113.226-.106q.111-.059.227-.105l.227-.098c.078-.031.152-.058.23-.09.152-.062.309-.109.461-.16q.117-.04.234-.074l.114-.035.117-.028c.082-.019.156-.042.234-.062l.235-.05a7 7 0 0 1 .933-.122 5.23 5.23 0 0 1 2.649.535l.199.106.195.113q.1.058.192.121l.097.063.094.066q.373.27.71.582c.11.11.224.219.325.332q.16.17.313.348.298.362.562.754.129.194.246.394l.07.121a7.6 7.6 0 0 0-1.184.238q-.173.049-.347.11-.179.059-.347.14.175.069.355.114c.121.031.238.062.36.082q.352.07.71.11 1.419.14 2.825-.11.35-.066.703-.16c.113-.035.23-.07.347-.114q.178-.058.348-.14a3 3 0 0 0-.36-.113 3 3 0 0 0-.355-.082 9 9 0 0 0-.71-.11 10 10 0 0 0-.587-.043l.012-.039.074-.226q.083-.224.176-.454a9 9 0 0 1 .45-.875q.252-.422.558-.816.3-.395.652-.742c.93-.942 2.11-1.645 3.41-2.098q.989-.34 2.02-.515 1.055-.177 2.121-.223a24 24 0 0 1 2.168 0q1.094.042 2.195.148-1.038-.376-2.117-.625m0 0"/><g clip-path="url(#d)" transform="translate(67 231)"><g clip-path="url(#e)"><path d="M.934 38.317q0-2.684 1.172-5.562 1.17-2.89 3.625-5.516 2.45-2.637 6.219-4.672 3.78-2.044 9-3.015-1.675-1.484-2.453-3.313c-.524-1.219-.782-2.445-.782-3.687q-.002-3 1.579-5.672 1.592-2.672 4.14-4.313C25.13 1.466 26.958.911 28.92.911q1.92 0 3.562.75 1.653.75 2.438 2.25.356.657.718.656.235.001.469-.109.248-.122.484-.25a21.6 21.6 0 0 1 2.938-1.453 8.3 8.3 0 0 1 3.187-.64h.297q.657 0 .985.327.328.332.328.813 0 .55-.422 1-.41.44-1.313.562-.908.066-2.437.688-1.519.626-2.75 1.562-1.22.925-1.219 2c0 .805-.14 1.875-.422 3.22a26 26 0 0 1-1.234 4.077q-.815 2.063-2.016 3.5-1.19 1.44-2.75 1.438-1.204.002-1.953-.922-.75-.937-.75-2.625 0-1.905.906-3.89a20.4 20.4 0 0 1 2.25-3.782q1.343-1.794 2.672-3.11.17-.186.344-.421a.83.83 0 0 0 .188-.532q0-1.263-1.266-1.796-1.253-.546-2.266-.547-2.284 0-4.562 1.406a12.2 12.2 0 0 0-3.75 3.562q-1.453 2.157-1.453 4.5c0 1 .218 1.961.656 2.875q.654 1.377 1.906 2.344.668.47.844.828.187.363.187.672-.002.598-.343 1.078a1.22 1.22 0 0 1-.922.532q-4.674.907-8.094 2.734-3.41 1.829-5.625 4.172c-1.48 1.555-2.578 3.156-3.297 4.812q-1.078 2.486-1.078 4.766-.002 3.175 1.906 5.031c1.282 1.242 2.977 1.86 5.094 1.86q2.936.001 5.906-1.375a31.8 31.8 0 0 0 5.657-3.375q2.702-2.014 4.812-3.875l1.14-1.016q.593-.482 1.079-.484.826 0 .828.843-.001.235-.125.563-.11.33-.469.625l-1.375 1.14a135 135 0 0 1-4.078 3.282 55 55 0 0 1-4.656 3.203 28.7 28.7 0 0 1-4.969 2.437q-2.55.969-5.062.97-2.877-.001-4.922-1.298a8.44 8.44 0 0 1-3.11-3.437Q.934 40.895.934 38.317m32.61-27.625q-.363 0-1.047.938-.69.926-1.391 2.297-.691 1.377-1.172 2.672-.468 1.284-.469 2 0 .595.422.593.593 0 1.25-.984.668-.984 1.266-2.39.592-1.406.984-2.688.389-1.296.39-1.906 0-.53-.233-.532m0 0"/></g><path d="M28.385 36.036q.002-.17.625-.922c.414-.5.907-1.078 1.47-1.734q.842-.998 1.53-1.75.686-.748.875-.922a.7.7 0 0 0 .172-.484q-.002-.293-.156-.657-.14-.358-.328-.78a25 25 0 0 0-.39-.892q-.205-.48-.204-1.203v-.547q-.002-1.668.828-2.5c.563-.562 1.164-.843 1.813-.843q.89 0 1.64.75t.75 2.484l-.109 1.078q-.001.11-.031.297a2.2 2.2 0 0 0-.032.422c0 .281.086.594.266.937q.263.504 1.281 1.032c.407.21.883.562 1.438 1.062.562.5.844 1.149.844 1.938q0 .72-.516 1.781-.502 1.049-1.766 2.719l-.89 1.203a2.25 2.25 0 0 0-.485.875q-.11.44-.109.734c0 .649.375.969 1.125.969q.843.001 2.062-.719 1.231-.715 2.516-1.672a38 38 0 0 0 2.281-1.828q.997-.872 1.297-1.234.295-.356.594-.485.311-.124.547-.125c.601 0 .906.305.906.907q0 .534-.422.828a54 54 0 0 1-3.156 2.89 22.8 22.8 0 0 1-3.875 2.657q-2.032 1.111-4 1.11-1.564 0-2.5-.75-.924-.75-.922-2.063-.001-1.434.86-2.782a16 16 0 0 1 1.843-2.375q.528-.591.89-1.078c.24-.32.36-.625.36-.906q-.002-.656-.812-1.188-.797-.545-1.407-.546-.362 0-.718.421-.235.236-.89 1.016-.658.785-1.438 1.688a18 18 0 0 1-1.5 1.53q-.721.627-1.016.626-.423 0-.781-.297-.36-.31-.36-.672m0 0"/><path d="M41.08 43.536c0-.32.087-.582.25-.781l15.157-21.75a40 40 0 0 1 1.734-2.406 52 52 0 0 1 1.688-2.032q1.313-1.5 2.484-2.156c.781-.445 1.488-.672 2.125-.672.758 0 1.36.242 1.797.719.445.48.672 1.121.672 1.922q0 .72-.36 1.562-.363.844-1.265 1.922-1.378 1.612-3.453 3.031a72 72 0 0 1-4.64 2.891q-.535.316-1.345.906-.813.598-.812 1.266-.001.532.719.531.42.002.78-.125 3.423 0 4.829 1.36 1.406 1.347 1.406 3.328 0 2.22-1.312 4.547l.719.062q1.183 0 1.875-.469a11.3 11.3 0 0 0 1.468-1.265l.422-.422q.357-.358.906-.36.421.001.72.266c.194.18.296.387.296.625 0 .168-.086.34-.25.516q-.234.27-1.125 1.172-.783.783-1.531 1.328-.751.532-1.953.531h-.36l-2.218-.188a14.1 14.1 0 0 1-3.297 3.485 7.14 7.14 0 0 1-4.438 1.5q-1.909 0-3.265-1.078c-.899-.727-1.344-1.79-1.344-3.188l.062-.531c.157-1.477.649-2.555 1.485-3.234q1.265-1.031 2.953-1.141l.719-.063h.296c.676 0 1.286.102 1.829.297q.81.3 1.468.594c.438.168.711.281.828.344a.8.8 0 0 0 .25.078q.482.002.875-.688a6.7 6.7 0 0 0 .625-1.546q.235-.872.235-1.422 0-.891-.656-1.407c-.438-.343-1.04-.515-1.797-.515q-1.988 0-3.97 1.297-1.969 1.283-3.218 2.672l-6.484 9.468c-.27.399-.664.594-1.188.594q-.608 0-1-.39a1.34 1.34 0 0 1-.39-.985m9.126-4.25v.297q-.001.956.53 1.344.547.39 1.204.39.715 0 1.875-.39a8.4 8.4 0 0 0 2.094-1.016q.937-.622.937-1.297-.002-.656-.718-.984a6.2 6.2 0 0 0-1.625-.469c-.594-.101-1.07-.156-1.422-.156-.649 0-1.29.164-1.922.484q-.954.471-.953 1.797m14.078-22.484q-.551 0-1.453.781a22 22 0 0 0-1.828 1.828q-.927 1.05-1.547 1.953-.626.892-.625 1.188c0 .086.039.125.125.125q.293.002 1.218-.594a22 22 0 0 0 2.016-1.5 16 16 0 0 0 1.844-1.797q.78-.903.781-1.437c0-.364-.18-.547-.531-.547m0 0"/><path d="M64.704 39.395c0-1.28.461-2.617 1.375-4.015.914-1.395 2.094-2.703 3.531-3.922q2.156-1.827 4.516-2.969 2.374-1.139 4.297-1.14.844.002 1.594.25c.5.156 1.008.336 1.531.53l.297.126c.351.156.703.297 1.047.422q.513.174 1.343.172.359-.124.547-.125.592 0 1.047.421.452.424.453.97c0 .155-.062.335-.187.53q-.176.298-.656.72c-.399.28-.907.734-1.532 1.359a25 25 0 0 0-1.859 2.093 16 16 0 0 0-1.563 2.375q-.626 1.19-.625 2.141 0 .423.235.781.246.361 1.031.36 1.371 0 2.953-.985a24 24 0 0 0 3-2.187q1.419-1.202 2.203-1.86.657-.546 1.125-.547.905.002.907.907-.002.485-.485.953-1.375 1.207-3.297 2.765a25 25 0 0 1-3.953 2.672c-1.355.743-2.652 1.11-3.89 1.11q-1.266.001-2.25-.625a3.2 3.2 0 0 1-1.344-1.782c-.125-.28-.352-.421-.672-.421q-.41 0-.984.312c-.375.2-.79.434-1.235.703l-1.312.844q-.89.611-1.735.766a9.6 9.6 0 0 1-1.562.14c-1.156 0-2.098-.36-2.813-1.078q-1.078-1.078-1.078-2.766m3.36-1.25c0 1.274.656 1.907 1.968 1.907q1.203 0 2.938-.953 1.732-.95 3.406-2.422 1.686-1.465 2.797-3 1.109-1.53 1.11-2.61c0-.562-.184-.976-.548-1.25q-.532-.421-1.375-.422-1.252 0-3 .844a18 18 0 0 0-3.406 2.156q-1.675 1.314-2.781 2.844-1.112 1.517-1.11 2.906m0 0"/><path d="M85.192 41.677c0-.282.086-.52.25-.719a62 62 0 0 1 3.36-4.797 141 141 0 0 0 3.468-4.734l2.453-3.422c.195-.313.438-.524.719-.64q.421-.188.719-.188c.601 0 .984.218 1.14.656q.187.485.61.484.358.001.828-.25a7.1 7.1 0 0 1 2.828-.593q1.606.002 2.75.812 1.138.798 1.14 2.422-.001.595-.218 1.297-.206.69-.688 1.453-.297.485-.719 1c-.28.336-.558.703-.828 1.11l-1.203 1.609q-.72.97-1.031 1.718-.298.75-.297 1.22 0 .719.672.718.655 0 1.703-.656a20 20 0 0 0 2.156-1.578 88 88 0 0 0 2.063-1.797 33 33 0 0 1 1.5-1.297l.36-.297q.42-.312.671-.313.405.001.703.313c.207.2.313.437.313.719a1 1 0 0 1-.25.656 53 53 0 0 1-2.75 2.703 22 22 0 0 1-3.422 2.578q-1.8 1.078-3.594 1.078c-.875 0-1.574-.226-2.094-.687-.523-.469-.78-1.14-.78-2.016q-.001-.842.39-1.89.386-1.044 1.172-2.25l2.578-3.594q.42-.53.531-.953.124-.422.125-.719 0-.968-1.438-.969-1.5 0-3.187.938a15.8 15.8 0 0 0-3.078 2.218q-1.407 1.284-2.25 2.485l-4.735 6.828q-.528.72-1.25.719-.608 0-1-.422c-.257-.281-.39-.598-.39-.953m0 0"/><g clip-path="url(#f)"><path d="M140.64 46.708q-.315.061-.64.062h-.626q-3.362.001-5.672-1.187-2.296-1.2-3.375-3.156a6.62 6.62 0 0 1-.78-4.172q.293-2.217 2.187-4.25c1.257-1.352 3.11-2.492 5.547-3.422q1.793-.655 2.937-2.75l5.516-9.656q1.606-2.871 3.172-5.39a248 248 0 0 0 3.484-5.813q.357-.546.953-.547.53 0 .953.36.48.362.563.937.091.564-.203 1.046l-10.313 17.86c-.117.68-.055 1.156.188 1.437q.358.423 1.015.422.123.002.235-.031.122-.03.25-.031a52 52 0 0 1 5.921-.594q3-.123 6-.422a.87.87 0 0 1 .75.25q.328.3.391.703a.76.76 0 0 1-.156.75 1.08 1.08 0 0 1-.735.39 527 527 0 0 0-6.875.423q-3.44.236-6.796.906-2.392.47-3.454 1.906-1.049 1.44-1.875 3.485l-.187.421q-.235.659-.547 1.282-.3.628-.594 1.11c-.28.405-.523.679-.718.812q-.3.204-.594.203-.189.001-.547-.11-1.44-.654-.781-2.28l.312-.72c.156-.394.32-.812.5-1.25q.264-.67.688-1.093l.062.125c.156-.32.156-.563 0-.72a.8.8 0 0 0-.594-.234h-.218a.4.4 0 0 0-.266.11c-1.437.96-2.43 2-2.969 3.125q-.814 1.674-.39 3.172.42 1.502 2.125 2.5 1.716.984 4.593.984h.594q.294 0 .61-.062 4.125-.295 8.109-2.032a30 30 0 0 0 7.375-4.593 32.4 32.4 0 0 0 5.875-6.438q2.483-3.607 3.719-7.625 1.232-4.015.812-8.14-.363-3.844-2.015-6.391-1.642-2.544-4.016-3.828a10.4 10.4 0 0 0-5.063-1.297q-2.94 0-5.875 1.687c-1.96 1.118-3.593 2.828-4.906 5.141q-.253.485-.781.484-.55.001-1-.53-.44-.545-.078-1.142c1.594-2.843 3.554-4.953 5.89-6.328 2.344-1.375 4.711-2.062 7.11-2.062q3.17.001 6.078 1.625 2.919 1.611 4.953 4.781 2.029 3.174 2.703 7.906.592 4.564-.703 9-1.282 4.44-4.047 8.422a34.6 34.6 0 0 1-6.562 7.11 35.5 35.5 0 0 1-8.235 5.062c-2.96 1.293-5.953 2.055-8.984 2.297m0 0"/></g><path d="M163.77 39.395c0-1.28.461-2.617 1.375-4.015.914-1.395 2.094-2.703 3.531-3.922q2.156-1.827 4.516-2.969 2.374-1.139 4.297-1.14.844.002 1.594.25c.5.156 1.008.336 1.531.53l.297.126c.351.156.703.297 1.047.422q.513.174 1.343.172.359-.124.547-.125.592 0 1.047.421.452.424.453.97c0 .155-.062.335-.187.53q-.176.298-.656.72-.597.42-1.532 1.359a25 25 0 0 0-1.859 2.093 16 16 0 0 0-1.563 2.375q-.625 1.19-.625 2.141 0 .423.235.781.246.361 1.031.36 1.371 0 2.953-.985a24 24 0 0 0 3-2.187q1.419-1.202 2.203-1.86.657-.546 1.125-.547c.602 0 .907.305.907.907q-.002.485-.485.953-1.375 1.207-3.297 2.765a25 25 0 0 1-3.953 2.672c-1.355.743-2.652 1.11-3.89 1.11q-1.266.001-2.25-.625a3.2 3.2 0 0 1-1.344-1.782c-.125-.28-.352-.421-.672-.421q-.41 0-.984.312c-.375.2-.79.434-1.235.703l-1.312.844q-.89.611-1.735.766a9.6 9.6 0 0 1-1.562.14c-1.156 0-2.098-.36-2.813-1.078q-1.077-1.078-1.078-2.766m3.36-1.25c0 1.274.656 1.907 1.968 1.907q1.203 0 2.938-.953 1.732-.95 3.406-2.422 1.686-1.465 2.797-3 1.109-1.53 1.11-2.61c0-.562-.184-.976-.548-1.25q-.531-.421-1.375-.422-1.252 0-3 .844a18 18 0 0 0-3.406 2.156q-1.675 1.314-2.781 2.844-1.111 1.517-1.11 2.906m0 0"/><path d="M184.258 41.677c0-.282.086-.52.25-.719a62 62 0 0 1 3.36-4.797 141 141 0 0 0 3.468-4.734l2.453-3.422c.195-.313.438-.524.719-.64q.421-.188.719-.188c.601 0 .984.218 1.14.656q.187.485.61.484.358.001.828-.25a7.1 7.1 0 0 1 2.828-.593q1.606.002 2.75.812 1.139.798 1.14 2.422-.001.595-.218 1.297-.206.69-.688 1.453-.297.485-.719 1c-.28.336-.558.703-.828 1.11l-1.203 1.609q-.72.97-1.031 1.718-.298.75-.297 1.22 0 .719.672.718.655 0 1.703-.656a20 20 0 0 0 2.156-1.578 88 88 0 0 0 2.063-1.797 33 33 0 0 1 1.5-1.297l.36-.297q.42-.312.671-.313.405.001.703.313c.207.2.313.437.313.719a1 1 0 0 1-.25.656 53 53 0 0 1-2.75 2.703 22 22 0 0 1-3.422 2.578q-1.8 1.078-3.594 1.078c-.875 0-1.574-.226-2.094-.687-.523-.469-.78-1.14-.78-2.016q-.001-.842.39-1.89.387-1.044 1.172-2.25l2.578-3.594q.42-.53.531-.953.124-.422.125-.719 0-.968-1.438-.969-1.5 0-3.187.938a15.8 15.8 0 0 0-3.078 2.218q-1.407 1.284-2.25 2.485l-4.735 6.828q-.528.72-1.25.719-.608 0-1-.422c-.257-.281-.39-.598-.39-.953m0 0"/><path d="M206.381 39.395c0-1.28.461-2.617 1.375-4.015.914-1.395 2.094-2.703 3.531-3.922q2.156-1.827 4.516-2.969 2.374-1.139 4.297-1.14.844.002 1.594.25c.5.156 1.008.336 1.531.53l.297.126c.351.156.703.297 1.047.422q.513.174 1.343.172.359-.124.547-.125.592 0 1.047.421.452.424.453.97c0 .155-.062.335-.187.53q-.176.298-.656.72c-.399.28-.907.734-1.532 1.359a25 25 0 0 0-1.859 2.093 16 16 0 0 0-1.563 2.375q-.626 1.19-.625 2.141 0 .423.235.781.246.361 1.031.36 1.371 0 2.953-.985a24 24 0 0 0 3-2.187q1.419-1.202 2.203-1.86.657-.546 1.125-.547.905.002.907.907-.002.485-.485.953-1.376 1.207-3.297 2.765a25 25 0 0 1-3.953 2.672c-1.355.743-2.652 1.11-3.89 1.11q-1.266.001-2.25-.625a3.2 3.2 0 0 1-1.344-1.782c-.125-.28-.352-.421-.672-.421q-.41 0-.984.312c-.375.2-.79.434-1.235.703l-1.312.844q-.89.611-1.735.766a9.6 9.6 0 0 1-1.562.14c-1.156 0-2.098-.36-2.813-1.078q-1.078-1.078-1.078-2.766m3.36-1.25c0 1.274.656 1.907 1.968 1.907q1.203 0 2.938-.953 1.732-.95 3.406-2.422 1.686-1.465 2.797-3 1.108-1.53 1.11-2.61c0-.562-.184-.976-.548-1.25q-.532-.421-1.375-.422-1.253 0-3 .844a18 18 0 0 0-3.406 2.156q-1.675 1.314-2.781 2.844-1.112 1.517-1.11 2.906m0 0"/><g clip-path="url(#g)"><path d="M208.416 63.49q-2.403-.001-3.844-1.298-1.437-1.283-1.438-3.187.001-1.565 1.063-3.36 1.049-1.797 3.437-3.484 2.097-1.5 4.704-2.578a231 231 0 0 1 5.421-2.156l4.985-1.922q1.254-.47 1.828-.89.564-.422.922-.907l3.234-4.844a158 158 0 0 1 3.485-4.89 108 108 0 0 0 3.53-5.063q.295-.482.907-.484.592 0 1.031.453.452.458.453.984c0 .281-.078.524-.234.719a26 26 0 0 0-2.64 3.578 250 250 0 0 1-2.454 3.922 21.7 21.7 0 0 1-3 3.719c-.07.074-.11.195-.11.36q.001.233.235.233.534 0 1.735-.75 1.199-.748 2.734-1.89 1.53-1.139 3.047-2.36 1.529-1.231 2.734-2.125.422-.311.72-.312.42 0 .75.312.327.299.327.72-.002.362-.297.655a45.4 45.4 0 0 1-5.515 4.704 25.5 25.5 0 0 1-6.235 3.328q-1.2.422-1.922.875-.714.44-1.312 1.218-.609.781-1.5 2.094a98 98 0 0 1-3.14 4.563 50 50 0 0 1-3.985 4.812q-2.168 2.31-4.594 3.781c-1.613.977-3.3 1.47-5.062 1.47m.718-9.704q-1.92 1.312-2.78 2.688-.875 1.389-.876 2.53.002 1.016.719 1.673.721.656 2.156.656 2.098-.001 4.14-1.344 2.034-1.347 3.891-3.422a45 45 0 0 0 3.36-4.187q1.501-2.128 2.515-3.688.002-.361-.546-.359-.762 0-2.532.656a52 52 0 0 0-3.843 1.61q-2.063.966-3.797 1.828c-1.164.582-1.97 1.035-2.407 1.36m30.625-26.734q-.596.002-1.046-.453-.456-.45-.454-1.047c0-.438.149-.805.454-1.11q.45-.451 1.046-.453c.438 0 .805.153 1.11.453.3.305.453.672.453 1.11q0 .596-.453 1.047a1.5 1.5 0 0 1-1.11.453m0 0"/></g></g></svg>